G75*
G70*
%OFA0B0*%
%FSLAX24Y24*%
%IPPOS*%
%LPD*%
%AMOC8*
5,1,8,0,0,1.08239X$1,22.5*
%
%ADD10C,0.0080*%
%ADD11R,0.3640X0.0020*%
%ADD12R,0.7900X0.0020*%
%ADD13R,0.8180X0.0020*%
%ADD14R,0.8260X0.0020*%
%ADD15R,0.0480X0.0020*%
%ADD16R,0.4400X0.0020*%
%ADD17R,0.0280X0.0020*%
%ADD18R,0.0300X0.0020*%
%ADD19R,0.0260X0.0020*%
%ADD20R,0.0240X0.0020*%
%ADD21R,0.0200X0.0020*%
%ADD22R,0.0160X0.0020*%
%ADD23R,0.0220X0.0020*%
%ADD24R,0.0180X0.0020*%
%ADD25R,0.0140X0.0020*%
%ADD26R,0.0120X0.0020*%
%ADD27R,0.0100X0.0020*%
%ADD28R,0.0080X0.0020*%
%ADD29R,0.0060X0.0020*%
%ADD30R,0.0340X0.0020*%
%ADD31R,0.0360X0.0020*%
%ADD32R,0.0380X0.0020*%
%ADD33R,0.0400X0.0020*%
%ADD34R,0.0040X0.0020*%
%ADD35R,0.0020X0.0020*%
%ADD36R,0.0320X0.0020*%
%ADD37R,0.0420X0.0020*%
%ADD38R,0.0540X0.0020*%
%ADD39R,0.0620X0.0020*%
%ADD40R,0.0700X0.0020*%
%ADD41R,0.8340X0.0020*%
%ADD42R,0.8280X0.0020*%
%ADD43R,0.8220X0.0020*%
%ADD44R,0.8040X0.0020*%
%ADD45C,0.0060*%
D10*
X000711Y000641D02*
X000851Y000641D01*
X000921Y000711D01*
X001101Y000711D02*
X001171Y000641D01*
X001311Y000641D01*
X001381Y000711D01*
X001381Y000851D01*
X001311Y000921D01*
X001171Y000921D01*
X001101Y000851D01*
X001101Y000711D01*
X000921Y000991D02*
X000851Y001061D01*
X000711Y001061D01*
X000641Y000991D01*
X000641Y000711D01*
X000711Y000641D01*
X001561Y000641D02*
X001561Y000921D01*
X001561Y000781D02*
X001702Y000921D01*
X001772Y000921D01*
X001945Y000851D02*
X002015Y000921D01*
X002155Y000921D01*
X002225Y000851D01*
X002225Y000781D01*
X001945Y000781D01*
X001945Y000711D02*
X001945Y000851D01*
X001945Y000711D02*
X002015Y000641D01*
X002155Y000641D01*
X002866Y000641D02*
X002866Y001061D01*
X003006Y000921D01*
X003146Y001061D01*
X003146Y000641D01*
X003326Y000711D02*
X003326Y000851D01*
X003396Y000921D01*
X003536Y000921D01*
X003606Y000851D01*
X003606Y000781D01*
X003326Y000781D01*
X003326Y000711D02*
X003396Y000641D01*
X003536Y000641D01*
X003787Y000641D02*
X003787Y000921D01*
X003857Y000921D01*
X003927Y000851D01*
X003997Y000921D01*
X004067Y000851D01*
X004067Y000641D01*
X003927Y000641D02*
X003927Y000851D01*
X004247Y000851D02*
X004317Y000921D01*
X004457Y000921D01*
X004527Y000851D01*
X004527Y000711D01*
X004457Y000641D01*
X004317Y000641D01*
X004247Y000711D01*
X004247Y000851D01*
X004707Y000921D02*
X004707Y000641D01*
X004707Y000781D02*
X004847Y000921D01*
X004917Y000921D01*
X005091Y000921D02*
X005091Y000711D01*
X005161Y000641D01*
X005371Y000641D01*
X005371Y000571D02*
X005301Y000501D01*
X005231Y000501D01*
X005371Y000571D02*
X005371Y000921D01*
X006012Y001061D02*
X006012Y000641D01*
X006292Y000641D02*
X006292Y001061D01*
X006152Y000921D01*
X006012Y001061D01*
X006472Y000851D02*
X006472Y000711D01*
X006542Y000641D01*
X006682Y000641D01*
X006752Y000711D01*
X006752Y000851D01*
X006682Y000921D01*
X006542Y000921D01*
X006472Y000851D01*
X006932Y000851D02*
X007002Y000921D01*
X007213Y000921D01*
X007213Y001061D02*
X007213Y000641D01*
X007002Y000641D01*
X006932Y000711D01*
X006932Y000851D01*
X007393Y000921D02*
X007393Y000711D01*
X007463Y000641D01*
X007673Y000641D01*
X007673Y000921D01*
X007853Y001061D02*
X007923Y001061D01*
X007923Y000641D01*
X007853Y000641D02*
X007993Y000641D01*
X008160Y000711D02*
X008160Y000851D01*
X008230Y000921D01*
X008370Y000921D01*
X008440Y000851D01*
X008440Y000781D01*
X008160Y000781D01*
X008160Y000711D02*
X008230Y000641D01*
X008370Y000641D01*
X009081Y000921D02*
X009221Y000641D01*
X009361Y000921D01*
X009541Y000921D02*
X009681Y001061D01*
X009681Y000641D01*
X009541Y000641D02*
X009821Y000641D01*
X010001Y000641D02*
X010071Y000641D01*
X010071Y000711D01*
X010001Y000711D01*
X010001Y000641D01*
X010231Y000641D02*
X010512Y000641D01*
X010372Y000641D02*
X010372Y001061D01*
X010231Y000921D01*
X012994Y000851D02*
X013204Y000851D01*
X013274Y000781D01*
X013274Y000711D01*
X013204Y000641D01*
X012994Y000641D01*
X012994Y001061D01*
X013204Y001061D01*
X013274Y000991D01*
X013274Y000921D01*
X013204Y000851D01*
X013454Y000711D02*
X013524Y000711D01*
X013524Y000641D01*
X013454Y000641D01*
X013454Y000711D01*
X013684Y000641D02*
X013684Y001061D01*
X013964Y000641D01*
X013964Y001061D01*
X014144Y000851D02*
X014214Y000921D01*
X014355Y000921D01*
X014425Y000851D01*
X014425Y000711D01*
X014355Y000641D01*
X014214Y000641D01*
X014144Y000711D01*
X014144Y000851D01*
X014605Y000921D02*
X014605Y000641D01*
X014605Y000781D02*
X014745Y000921D01*
X014815Y000921D01*
X014988Y000921D02*
X015129Y000921D01*
X015058Y000991D02*
X015058Y000711D01*
X015129Y000641D01*
X015295Y000641D02*
X015295Y001061D01*
X015365Y000921D02*
X015505Y000921D01*
X015576Y000851D01*
X015576Y000641D01*
X015756Y000501D02*
X015896Y000641D01*
X015826Y000641D01*
X015826Y000711D01*
X015896Y000711D01*
X015896Y000641D01*
X016523Y000711D02*
X016523Y000991D01*
X016593Y001061D01*
X016733Y001061D01*
X016803Y000991D01*
X016803Y000711D01*
X016733Y000641D01*
X016593Y000641D01*
X016523Y000711D01*
X016983Y000711D02*
X017053Y000711D01*
X017053Y000641D01*
X016983Y000641D01*
X016983Y000711D01*
X017213Y000641D02*
X017213Y001061D01*
X017494Y000641D01*
X017494Y001061D01*
X017744Y000921D02*
X017884Y000921D01*
X017954Y000851D01*
X017954Y000641D01*
X017744Y000641D01*
X017674Y000711D01*
X017744Y000781D01*
X017954Y000781D01*
X018134Y000851D02*
X018204Y000921D01*
X018414Y000921D01*
X018344Y000781D02*
X018204Y000781D01*
X018134Y000851D01*
X018134Y000641D02*
X018344Y000641D01*
X018414Y000711D01*
X018344Y000781D01*
X018594Y000851D02*
X018665Y000921D01*
X018805Y000921D01*
X018875Y000851D01*
X018875Y000641D01*
X018594Y000641D02*
X018594Y001061D01*
X015365Y000921D02*
X015295Y000851D01*
X018771Y010741D02*
X018701Y010811D01*
X018771Y010741D02*
X018911Y010741D01*
X018981Y010811D01*
X018981Y010881D01*
X018911Y010951D01*
X018841Y010951D01*
X018911Y010951D02*
X018981Y011021D01*
X018981Y011091D01*
X018911Y011161D01*
X018771Y011161D01*
X018701Y011091D01*
X019161Y011161D02*
X019161Y010951D01*
X019301Y011021D01*
X019371Y011021D01*
X019441Y010951D01*
X019441Y010811D01*
X019371Y010741D01*
X019231Y010741D01*
X019161Y010811D01*
X019161Y011161D02*
X019441Y011161D01*
X019371Y012241D02*
X019441Y012311D01*
X019441Y012381D01*
X019371Y012451D01*
X019161Y012451D01*
X019161Y012311D01*
X019231Y012241D01*
X019371Y012241D01*
X019161Y012451D02*
X019301Y012591D01*
X019441Y012661D01*
X018981Y012591D02*
X018981Y012521D01*
X018911Y012451D01*
X018981Y012381D01*
X018981Y012311D01*
X018911Y012241D01*
X018771Y012241D01*
X018701Y012311D01*
X018841Y012451D02*
X018911Y012451D01*
X018981Y012591D02*
X018911Y012661D01*
X018771Y012661D01*
X018701Y012591D01*
X018771Y013741D02*
X018701Y013811D01*
X018771Y013741D02*
X018911Y013741D01*
X018981Y013811D01*
X018981Y013881D01*
X018911Y013951D01*
X018841Y013951D01*
X018911Y013951D02*
X018981Y014021D01*
X018981Y014091D01*
X018911Y014161D01*
X018771Y014161D01*
X018701Y014091D01*
X019161Y014021D02*
X019301Y014161D01*
X019301Y013741D01*
X019161Y013741D02*
X019441Y013741D01*
X021003Y013741D02*
X021283Y013741D01*
X021143Y013741D02*
X021143Y014161D01*
X021003Y014021D01*
X021463Y014091D02*
X021533Y014161D01*
X021673Y014161D01*
X021743Y014091D01*
X021463Y013811D01*
X021533Y013741D01*
X021673Y013741D01*
X021743Y013811D01*
X021743Y014091D01*
X021463Y014091D02*
X021463Y013811D01*
X021463Y012661D02*
X021743Y012661D01*
X021743Y012591D01*
X021463Y012311D01*
X021463Y012241D01*
X021283Y012241D02*
X021003Y012241D01*
X021143Y012241D02*
X021143Y012661D01*
X021003Y012521D01*
X021143Y011161D02*
X021143Y010741D01*
X021003Y010741D02*
X021283Y010741D01*
X021463Y010951D02*
X021743Y010951D01*
X021673Y011161D02*
X021463Y010951D01*
X021673Y010741D02*
X021673Y011161D01*
X021143Y011161D02*
X021003Y011021D01*
X023304Y011091D02*
X023374Y011161D01*
X023514Y011161D01*
X023585Y011091D01*
X023585Y011021D01*
X023304Y010741D01*
X023585Y010741D01*
X023765Y010811D02*
X023835Y010741D01*
X023975Y010741D01*
X024045Y010811D01*
X024045Y010951D01*
X023975Y011021D01*
X023905Y011021D01*
X023765Y010951D01*
X023765Y011161D01*
X024045Y011161D01*
X023975Y012241D02*
X024045Y012311D01*
X024045Y012381D01*
X023975Y012451D01*
X023765Y012451D01*
X023765Y012311D01*
X023835Y012241D01*
X023975Y012241D01*
X023765Y012451D02*
X023905Y012591D01*
X024045Y012661D01*
X023585Y012591D02*
X023514Y012661D01*
X023374Y012661D01*
X023304Y012591D01*
X023585Y012591D02*
X023585Y012521D01*
X023304Y012241D01*
X023585Y012241D01*
X023585Y013741D02*
X023304Y013741D01*
X023585Y014021D01*
X023585Y014091D01*
X023514Y014161D01*
X023374Y014161D01*
X023304Y014091D01*
X023765Y014021D02*
X023905Y014161D01*
X023905Y013741D01*
X023765Y013741D02*
X024045Y013741D01*
X025606Y013811D02*
X025676Y013741D01*
X025816Y013741D01*
X025886Y013811D01*
X025886Y014091D01*
X025606Y013811D01*
X025606Y014091D01*
X025676Y014161D01*
X025816Y014161D01*
X025886Y014091D01*
X026066Y014091D02*
X026136Y014161D01*
X026277Y014161D01*
X026347Y014091D01*
X026066Y013811D01*
X026136Y013741D01*
X026277Y013741D01*
X026347Y013811D01*
X026347Y014091D01*
X026066Y014091D02*
X026066Y013811D01*
X026066Y012661D02*
X026347Y012661D01*
X026347Y012591D01*
X026066Y012311D01*
X026066Y012241D01*
X025886Y012311D02*
X025816Y012241D01*
X025676Y012241D01*
X025606Y012311D01*
X025886Y012591D01*
X025886Y012311D01*
X025606Y012311D02*
X025606Y012591D01*
X025676Y012661D01*
X025816Y012661D01*
X025886Y012591D01*
X025816Y011161D02*
X025676Y011161D01*
X025606Y011091D01*
X025606Y010811D01*
X025886Y011091D01*
X025886Y010811D01*
X025816Y010741D01*
X025676Y010741D01*
X025606Y010811D01*
X025886Y011091D02*
X025816Y011161D01*
X026066Y010951D02*
X026347Y010951D01*
X026277Y011161D02*
X026066Y010951D01*
X026277Y010741D02*
X026277Y011161D01*
X026277Y015241D02*
X026136Y015241D01*
X026066Y015311D01*
X025886Y015311D02*
X025816Y015241D01*
X025676Y015241D01*
X025606Y015311D01*
X025886Y015591D01*
X025886Y015311D01*
X025606Y015311D02*
X025606Y015591D01*
X025676Y015661D01*
X025816Y015661D01*
X025886Y015591D01*
X026066Y015591D02*
X026136Y015661D01*
X026277Y015661D01*
X026347Y015591D01*
X026347Y015521D01*
X026277Y015451D01*
X026347Y015381D01*
X026347Y015311D01*
X026277Y015241D01*
X026277Y015451D02*
X026207Y015451D01*
X026277Y016741D02*
X026136Y016741D01*
X026066Y016811D01*
X026066Y016951D02*
X026207Y017021D01*
X026277Y017021D01*
X026347Y016951D01*
X026347Y016811D01*
X026277Y016741D01*
X026066Y016951D02*
X026066Y017161D01*
X026347Y017161D01*
X025886Y017091D02*
X025886Y016811D01*
X025816Y016741D01*
X025676Y016741D01*
X025606Y016811D01*
X025886Y017091D01*
X025816Y017161D01*
X025676Y017161D01*
X025606Y017091D01*
X025606Y016811D01*
X024045Y016951D02*
X023765Y016951D01*
X023975Y017161D01*
X023975Y016741D01*
X023585Y016741D02*
X023304Y016741D01*
X023585Y017021D01*
X023585Y017091D01*
X023514Y017161D01*
X023374Y017161D01*
X023304Y017091D01*
X023304Y018241D02*
X023585Y018521D01*
X023585Y018591D01*
X023514Y018661D01*
X023374Y018661D01*
X023304Y018591D01*
X023304Y018241D02*
X023585Y018241D01*
X023765Y018241D02*
X023765Y018311D01*
X024045Y018591D01*
X024045Y018661D01*
X023765Y018661D01*
X023775Y019641D02*
X023705Y019711D01*
X023985Y019991D01*
X023985Y019711D01*
X023915Y019641D01*
X023775Y019641D01*
X023705Y019711D02*
X023705Y019991D01*
X023775Y020061D01*
X023915Y020061D01*
X023985Y019991D01*
X023525Y019991D02*
X023454Y020061D01*
X023314Y020061D01*
X023244Y019991D01*
X023525Y019991D02*
X023525Y019921D01*
X023244Y019641D01*
X023525Y019641D01*
X023525Y021141D02*
X023244Y021141D01*
X023525Y021421D01*
X023525Y021491D01*
X023454Y021561D01*
X023314Y021561D01*
X023244Y021491D01*
X023705Y021491D02*
X023775Y021561D01*
X023915Y021561D01*
X023985Y021491D01*
X023985Y021421D01*
X023915Y021351D01*
X023985Y021281D01*
X023985Y021211D01*
X023915Y021141D01*
X023775Y021141D01*
X023705Y021211D01*
X023845Y021351D02*
X023915Y021351D01*
X025546Y021211D02*
X025826Y021491D01*
X025826Y021211D01*
X025756Y021141D01*
X025616Y021141D01*
X025546Y021211D01*
X025546Y021491D01*
X025616Y021561D01*
X025756Y021561D01*
X025826Y021491D01*
X026006Y021491D02*
X026076Y021561D01*
X026217Y021561D01*
X026287Y021491D01*
X026287Y021421D01*
X026006Y021141D01*
X026287Y021141D01*
X026147Y020061D02*
X026006Y019921D01*
X025826Y019991D02*
X025546Y019711D01*
X025616Y019641D01*
X025756Y019641D01*
X025826Y019711D01*
X025826Y019991D01*
X025756Y020061D01*
X025616Y020061D01*
X025546Y019991D01*
X025546Y019711D01*
X026006Y019641D02*
X026287Y019641D01*
X026147Y019641D02*
X026147Y020061D01*
X026347Y018661D02*
X026207Y018591D01*
X026066Y018451D01*
X026277Y018451D01*
X026347Y018381D01*
X026347Y018311D01*
X026277Y018241D01*
X026136Y018241D01*
X026066Y018311D01*
X026066Y018451D01*
X025886Y018591D02*
X025606Y018311D01*
X025676Y018241D01*
X025816Y018241D01*
X025886Y018311D01*
X025886Y018591D01*
X025816Y018661D01*
X025676Y018661D01*
X025606Y018591D01*
X025606Y018311D01*
X023975Y015661D02*
X023835Y015661D01*
X023765Y015591D01*
X023585Y015591D02*
X023514Y015661D01*
X023374Y015661D01*
X023304Y015591D01*
X023585Y015591D02*
X023585Y015521D01*
X023304Y015241D01*
X023585Y015241D01*
X023765Y015241D02*
X024045Y015521D01*
X024045Y015591D01*
X023975Y015661D01*
X024045Y015241D02*
X023765Y015241D01*
X021743Y015311D02*
X021673Y015241D01*
X021533Y015241D01*
X021463Y015311D01*
X021283Y015241D02*
X021003Y015241D01*
X021143Y015241D02*
X021143Y015661D01*
X021003Y015521D01*
X021463Y015591D02*
X021533Y015661D01*
X021673Y015661D01*
X021743Y015591D01*
X021743Y015521D01*
X021673Y015451D01*
X021743Y015381D01*
X021743Y015311D01*
X021673Y015451D02*
X021603Y015451D01*
X021533Y016741D02*
X021463Y016811D01*
X021533Y016741D02*
X021673Y016741D01*
X021743Y016811D01*
X021743Y016951D01*
X021673Y017021D01*
X021603Y017021D01*
X021463Y016951D01*
X021463Y017161D01*
X021743Y017161D01*
X021143Y017161D02*
X021143Y016741D01*
X021003Y016741D02*
X021283Y016741D01*
X021003Y017021D02*
X021143Y017161D01*
X021143Y018241D02*
X021143Y018661D01*
X021003Y018521D01*
X021003Y018241D02*
X021283Y018241D01*
X021463Y018311D02*
X021463Y018451D01*
X021673Y018451D01*
X021743Y018381D01*
X021743Y018311D01*
X021673Y018241D01*
X021533Y018241D01*
X021463Y018311D01*
X021463Y018451D02*
X021603Y018591D01*
X021743Y018661D01*
X021683Y019641D02*
X021403Y019641D01*
X021543Y019641D02*
X021543Y020061D01*
X021403Y019921D01*
X021223Y019641D02*
X020943Y019641D01*
X021083Y019641D02*
X021083Y020061D01*
X020943Y019921D01*
X020943Y021141D02*
X021223Y021141D01*
X021083Y021141D02*
X021083Y021561D01*
X020943Y021421D01*
X021403Y021491D02*
X021473Y021561D01*
X021613Y021561D01*
X021683Y021491D01*
X021683Y021421D01*
X021403Y021141D01*
X021683Y021141D01*
X019381Y021211D02*
X019311Y021141D01*
X019171Y021141D01*
X019101Y021211D01*
X018921Y021211D02*
X018921Y021281D01*
X018851Y021351D01*
X018781Y021351D01*
X018851Y021351D02*
X018921Y021421D01*
X018921Y021491D01*
X018851Y021561D01*
X018711Y021561D01*
X018641Y021491D01*
X018641Y021211D02*
X018711Y021141D01*
X018851Y021141D01*
X018921Y021211D01*
X019101Y021491D02*
X019171Y021561D01*
X019311Y021561D01*
X019381Y021491D01*
X019381Y021421D01*
X019311Y021351D01*
X019381Y021281D01*
X019381Y021211D01*
X019311Y021351D02*
X019241Y021351D01*
X019171Y020061D02*
X019311Y020061D01*
X019381Y019991D01*
X019101Y019711D01*
X019171Y019641D01*
X019311Y019641D01*
X019381Y019711D01*
X019381Y019991D01*
X019171Y020061D02*
X019101Y019991D01*
X019101Y019711D01*
X018921Y019711D02*
X018851Y019641D01*
X018711Y019641D01*
X018641Y019711D01*
X018781Y019851D02*
X018851Y019851D01*
X018921Y019781D01*
X018921Y019711D01*
X018851Y019851D02*
X018921Y019921D01*
X018921Y019991D01*
X018851Y020061D01*
X018711Y020061D01*
X018641Y019991D01*
X018771Y018661D02*
X018911Y018661D01*
X018981Y018591D01*
X018981Y018521D01*
X018911Y018451D01*
X018981Y018381D01*
X018981Y018311D01*
X018911Y018241D01*
X018771Y018241D01*
X018701Y018311D01*
X018841Y018451D02*
X018911Y018451D01*
X018701Y018591D02*
X018771Y018661D01*
X019161Y018661D02*
X019441Y018661D01*
X019441Y018591D01*
X019161Y018311D01*
X019161Y018241D01*
X019371Y017161D02*
X019161Y016951D01*
X019441Y016951D01*
X019371Y016741D02*
X019371Y017161D01*
X018981Y017091D02*
X018981Y017021D01*
X018911Y016951D01*
X018981Y016881D01*
X018981Y016811D01*
X018911Y016741D01*
X018771Y016741D01*
X018701Y016811D01*
X018841Y016951D02*
X018911Y016951D01*
X018981Y017091D02*
X018911Y017161D01*
X018771Y017161D01*
X018701Y017091D01*
X018771Y015661D02*
X018911Y015661D01*
X018981Y015591D01*
X018981Y015521D01*
X018911Y015451D01*
X018981Y015381D01*
X018981Y015311D01*
X018911Y015241D01*
X018771Y015241D01*
X018701Y015311D01*
X018841Y015451D02*
X018911Y015451D01*
X018701Y015591D02*
X018771Y015661D01*
X019161Y015591D02*
X019231Y015661D01*
X019371Y015661D01*
X019441Y015591D01*
X019441Y015521D01*
X019161Y015241D01*
X019441Y015241D01*
D11*
X022231Y000381D03*
D12*
X024361Y000401D03*
D13*
X024501Y000421D03*
D14*
X024541Y000441D03*
D15*
X023071Y000461D03*
D16*
X026531Y000461D03*
D17*
X025071Y003101D03*
X025031Y003261D03*
X023211Y000481D03*
X031691Y009381D03*
X030951Y011841D03*
X028011Y012001D03*
D18*
X029601Y009441D03*
X029601Y009421D03*
X029601Y009401D03*
X031681Y009361D03*
X031681Y009341D03*
X033441Y011981D03*
X033601Y012021D03*
X025081Y003121D03*
X023361Y000521D03*
X023301Y000501D03*
X028641Y000481D03*
X028721Y000501D03*
D19*
X028781Y000521D03*
X025061Y003061D03*
X025061Y003081D03*
X023421Y000541D03*
X029661Y009281D03*
X029621Y009461D03*
X031701Y009421D03*
X031701Y009401D03*
X031741Y009221D03*
X033381Y011961D03*
X028101Y012021D03*
D20*
X030911Y011821D03*
X029631Y009501D03*
X029631Y009481D03*
X029671Y009261D03*
X031711Y009441D03*
X028831Y000541D03*
D21*
X025051Y003001D03*
X025051Y003021D03*
X023631Y000621D03*
X023591Y000601D03*
X023491Y000561D03*
X028531Y006301D03*
X030751Y011761D03*
X033311Y011941D03*
X027811Y011921D03*
D22*
X027851Y011941D03*
X027751Y011881D03*
X027671Y011841D03*
X030571Y011661D03*
X030711Y011741D03*
X033011Y011801D03*
X033031Y011821D03*
X033111Y011861D03*
X031731Y009521D03*
X031791Y009201D03*
X029651Y009581D03*
X029151Y000701D03*
X029111Y000661D03*
X028891Y000561D03*
X023851Y000741D03*
X023771Y000701D03*
X023751Y000681D03*
D23*
X023561Y000581D03*
X025061Y003041D03*
X028501Y006281D03*
X031721Y009461D03*
X031721Y009481D03*
X029641Y009521D03*
X030861Y011801D03*
X031021Y011861D03*
X033161Y011881D03*
X033201Y011901D03*
X033241Y011921D03*
X027961Y011981D03*
X027921Y011961D03*
D24*
X027781Y011901D03*
X030681Y011721D03*
X033061Y011841D03*
X031721Y009501D03*
X029641Y009541D03*
X029641Y009561D03*
X028441Y006261D03*
X025041Y002981D03*
X023721Y000661D03*
X028941Y000581D03*
X028981Y000601D03*
X029021Y000621D03*
D25*
X029061Y000641D03*
X029121Y000681D03*
X029221Y000741D03*
X029241Y000761D03*
X029361Y000861D03*
X029441Y000941D03*
X025041Y002941D03*
X025041Y002961D03*
X024961Y003281D03*
X024081Y000921D03*
X024001Y000841D03*
X023881Y000761D03*
X023681Y000641D03*
X028581Y006321D03*
X028621Y006341D03*
X028641Y006361D03*
X029661Y009601D03*
X031741Y009541D03*
X032801Y011681D03*
X032881Y011721D03*
X032901Y011741D03*
X032921Y011761D03*
X032961Y011781D03*
X030801Y011781D03*
X030641Y011701D03*
X030601Y011681D03*
X030561Y011641D03*
X030481Y011601D03*
X027701Y011861D03*
X027641Y011821D03*
X027601Y011801D03*
X027541Y011761D03*
X027521Y011741D03*
X027441Y011681D03*
X027361Y011601D03*
X027281Y011521D03*
D26*
X027271Y011501D03*
X027331Y011561D03*
X027351Y011581D03*
X027411Y011641D03*
X027431Y011661D03*
X027511Y011721D03*
X027211Y011441D03*
X027191Y011421D03*
X027191Y011401D03*
X027131Y011321D03*
X029731Y009241D03*
X031751Y009561D03*
X032471Y011341D03*
X032491Y011361D03*
X032551Y011441D03*
X032611Y011501D03*
X032631Y011521D03*
X032651Y011541D03*
X032671Y011561D03*
X032691Y011581D03*
X032711Y011601D03*
X032771Y011641D03*
X032791Y011661D03*
X030471Y011581D03*
X030451Y011561D03*
X030391Y011521D03*
X030311Y011441D03*
X030311Y011421D03*
X030251Y011361D03*
X030231Y011321D03*
X028811Y006541D03*
X028791Y006501D03*
X028731Y006441D03*
X028711Y006421D03*
X028651Y006381D03*
X025031Y002921D03*
X024411Y001301D03*
X024311Y001181D03*
X024251Y001101D03*
X024231Y001081D03*
X024231Y001061D03*
X024171Y001001D03*
X024151Y000981D03*
X024071Y000901D03*
X024011Y000861D03*
X023971Y000821D03*
X023911Y000781D03*
X023831Y000721D03*
X029191Y000721D03*
X029271Y000781D03*
X029291Y000801D03*
X029331Y000821D03*
X029351Y000841D03*
X029411Y000901D03*
X029431Y000921D03*
X029491Y000981D03*
X029511Y001021D03*
X029691Y001241D03*
D27*
X029701Y001261D03*
X029681Y001221D03*
X029661Y001201D03*
X029621Y001141D03*
X029601Y001121D03*
X029581Y001101D03*
X029581Y001081D03*
X029561Y001061D03*
X029541Y001041D03*
X029501Y001001D03*
X029461Y000961D03*
X029381Y000881D03*
X029741Y001301D03*
X029741Y001321D03*
X029761Y001341D03*
X029781Y001381D03*
X029821Y001461D03*
X029841Y001481D03*
X029861Y001501D03*
X029901Y001601D03*
X029921Y001621D03*
X029921Y001641D03*
X029941Y001661D03*
X029981Y001761D03*
X030001Y001781D03*
X030001Y001801D03*
X030061Y001941D03*
X030081Y001981D03*
X030101Y002021D03*
X030141Y002141D03*
X030161Y002181D03*
X030161Y002201D03*
X030221Y002381D03*
X030241Y002421D03*
X030321Y002681D03*
X030381Y002901D03*
X030461Y003221D03*
X030541Y003561D03*
X030561Y003641D03*
X030581Y003701D03*
X030621Y003941D03*
X030661Y004101D03*
X030701Y004341D03*
X030721Y004421D03*
X030741Y004501D03*
X030781Y004781D03*
X030801Y004861D03*
X030861Y005221D03*
X030881Y005301D03*
X030901Y005401D03*
X031101Y006581D03*
X031121Y006661D03*
X031141Y006761D03*
X031181Y007021D03*
X031201Y007101D03*
X031221Y007181D03*
X031341Y007841D03*
X031361Y007921D03*
X031381Y007981D03*
X031421Y008201D03*
X031441Y008281D03*
X031461Y008361D03*
X031521Y008641D03*
X031541Y008701D03*
X031621Y009041D03*
X031821Y009181D03*
X031741Y009581D03*
X031781Y009681D03*
X031841Y009921D03*
X031861Y009981D03*
X031901Y010141D03*
X031941Y010241D03*
X031981Y010381D03*
X032021Y010481D03*
X032061Y010601D03*
X032081Y010641D03*
X032101Y010681D03*
X032141Y010781D03*
X032141Y010801D03*
X032161Y010821D03*
X032181Y010841D03*
X032181Y010861D03*
X032221Y010941D03*
X032221Y010961D03*
X032241Y010981D03*
X032261Y011001D03*
X032261Y011021D03*
X032301Y011081D03*
X032301Y011101D03*
X032321Y011121D03*
X032341Y011141D03*
X032361Y011181D03*
X032381Y011221D03*
X032401Y011241D03*
X032421Y011261D03*
X032421Y011281D03*
X032461Y011321D03*
X032501Y011381D03*
X032521Y011401D03*
X032541Y011421D03*
X032581Y011461D03*
X032601Y011481D03*
X032741Y011621D03*
X032841Y011701D03*
X030521Y011621D03*
X030421Y011541D03*
X030381Y011501D03*
X030361Y011481D03*
X030341Y011461D03*
X030301Y011401D03*
X030241Y011341D03*
X030181Y011261D03*
X030181Y011241D03*
X030161Y011221D03*
X030141Y011201D03*
X030141Y011181D03*
X030101Y011121D03*
X030101Y011101D03*
X030081Y011081D03*
X030061Y011041D03*
X030021Y010941D03*
X030021Y010921D03*
X029981Y010861D03*
X029981Y010841D03*
X029941Y010721D03*
X029901Y010621D03*
X029861Y010461D03*
X029841Y010401D03*
X029781Y010141D03*
X029761Y010081D03*
X029741Y010001D03*
X029661Y009641D03*
X029661Y009621D03*
X029581Y009241D03*
X029541Y009021D03*
X029521Y008941D03*
X029501Y008861D03*
X029461Y008641D03*
X029381Y008281D03*
X029361Y008221D03*
X029341Y008161D03*
X029341Y008141D03*
X029301Y007941D03*
X029261Y007801D03*
X029121Y007221D03*
X029101Y007181D03*
X029101Y007161D03*
X029061Y007021D03*
X029041Y006981D03*
X029021Y006941D03*
X028981Y006821D03*
X028941Y006761D03*
X028941Y006741D03*
X028901Y006681D03*
X028901Y006661D03*
X028881Y006641D03*
X028861Y006621D03*
X028861Y006601D03*
X028801Y006521D03*
X028741Y006461D03*
X028701Y006401D03*
X025861Y006981D03*
X025841Y006901D03*
X025901Y007261D03*
X026001Y007801D03*
X026021Y007881D03*
X026061Y008141D03*
X026081Y008221D03*
X026101Y008301D03*
X026141Y008541D03*
X026141Y008561D03*
X026161Y008621D03*
X026181Y008701D03*
X026221Y008921D03*
X026301Y009261D03*
X026321Y009321D03*
X026381Y009581D03*
X026401Y009641D03*
X026461Y009861D03*
X026481Y009921D03*
X026501Y009961D03*
X026541Y010121D03*
X026561Y010161D03*
X026581Y010201D03*
X026581Y010221D03*
X026641Y010381D03*
X026641Y010401D03*
X026701Y010541D03*
X026701Y010561D03*
X026741Y010621D03*
X026741Y010641D03*
X026801Y010761D03*
X026821Y010801D03*
X026861Y010901D03*
X026881Y010921D03*
X026881Y010941D03*
X026901Y010961D03*
X026941Y011041D03*
X026961Y011081D03*
X026981Y011101D03*
X027021Y011161D03*
X027021Y011181D03*
X027041Y011201D03*
X027061Y011221D03*
X027081Y011261D03*
X027101Y011301D03*
X027141Y011341D03*
X027141Y011361D03*
X027261Y011481D03*
X027301Y011541D03*
X027381Y011621D03*
X027581Y011781D03*
X025781Y006541D03*
X025761Y006461D03*
X025741Y006361D03*
X025621Y005661D03*
X025601Y005561D03*
X025581Y005481D03*
X025541Y005221D03*
X025521Y005141D03*
X025501Y005061D03*
X025461Y004821D03*
X025441Y004741D03*
X025421Y004661D03*
X025381Y004441D03*
X025361Y004361D03*
X025341Y004301D03*
X025261Y003941D03*
X025221Y003741D03*
X025201Y003661D03*
X025141Y003401D03*
X025121Y003341D03*
X025021Y002901D03*
X024981Y002761D03*
X024961Y002701D03*
X024941Y002641D03*
X024881Y002421D03*
X024861Y002361D03*
X024821Y002221D03*
X024821Y002201D03*
X024801Y002161D03*
X024781Y002121D03*
X024781Y002101D03*
X024741Y001981D03*
X024721Y001941D03*
X024701Y001901D03*
X024661Y001781D03*
X024641Y001741D03*
X024621Y001701D03*
X024561Y001581D03*
X024561Y001561D03*
X024541Y001541D03*
X024501Y001461D03*
X024481Y001421D03*
X024461Y001401D03*
X024461Y001381D03*
X024421Y001321D03*
X024381Y001281D03*
X024381Y001261D03*
X024361Y001241D03*
X024341Y001201D03*
X024301Y001161D03*
X024301Y001141D03*
X024181Y001021D03*
X024101Y000941D03*
X024041Y000881D03*
X023941Y000801D03*
D28*
X024131Y000961D03*
X024211Y001041D03*
X024271Y001121D03*
X024351Y001221D03*
X024431Y001341D03*
X024491Y001441D03*
X024511Y001481D03*
X024511Y001501D03*
X024531Y001521D03*
X024571Y001601D03*
X024591Y001621D03*
X024591Y001641D03*
X024611Y001681D03*
X024631Y001721D03*
X024651Y001761D03*
X024671Y001801D03*
X024671Y001821D03*
X024691Y001861D03*
X024691Y001881D03*
X024711Y001921D03*
X024731Y001961D03*
X024751Y002001D03*
X024751Y002021D03*
X024771Y002061D03*
X024771Y002081D03*
X024791Y002141D03*
X024811Y002181D03*
X024831Y002241D03*
X024831Y002261D03*
X024851Y002321D03*
X024851Y002341D03*
X024871Y002381D03*
X024871Y002401D03*
X024891Y002441D03*
X024891Y002461D03*
X024911Y002481D03*
X024911Y002501D03*
X024911Y002521D03*
X024931Y002581D03*
X024931Y002601D03*
X024931Y002621D03*
X024951Y002661D03*
X024951Y002681D03*
X024971Y002721D03*
X024971Y002741D03*
X024991Y002781D03*
X024991Y002801D03*
X024991Y002821D03*
X025011Y002881D03*
X025111Y003281D03*
X025111Y003301D03*
X025111Y003321D03*
X025131Y003361D03*
X025131Y003381D03*
X025151Y003421D03*
X025151Y003441D03*
X025151Y003461D03*
X025171Y003541D03*
X025171Y003561D03*
X025171Y003581D03*
X025191Y003601D03*
X025191Y003621D03*
X025191Y003641D03*
X025211Y003681D03*
X025211Y003701D03*
X025211Y003721D03*
X025231Y003761D03*
X025231Y003781D03*
X025231Y003801D03*
X025251Y003861D03*
X025251Y003881D03*
X025251Y003901D03*
X025251Y003921D03*
X025271Y003961D03*
X025271Y003981D03*
X025271Y004001D03*
X025291Y004021D03*
X025291Y004041D03*
X025291Y004061D03*
X025311Y004081D03*
X025311Y004101D03*
X025311Y004121D03*
X025311Y004141D03*
X025331Y004221D03*
X025331Y004241D03*
X025331Y004261D03*
X025331Y004281D03*
X025351Y004321D03*
X025351Y004341D03*
X025371Y004381D03*
X025371Y004401D03*
X025371Y004421D03*
X025391Y004461D03*
X025391Y004481D03*
X025391Y004501D03*
X025391Y004521D03*
X025411Y004581D03*
X025411Y004601D03*
X025411Y004621D03*
X025411Y004641D03*
X025431Y004681D03*
X025431Y004701D03*
X025431Y004721D03*
X025451Y004761D03*
X025451Y004781D03*
X025451Y004801D03*
X025471Y004841D03*
X025471Y004861D03*
X025471Y004881D03*
X025471Y004901D03*
X025491Y004981D03*
X025491Y005001D03*
X025491Y005021D03*
X025491Y005041D03*
X025511Y005081D03*
X025511Y005101D03*
X025511Y005121D03*
X025531Y005161D03*
X025531Y005181D03*
X025531Y005201D03*
X025551Y005241D03*
X025551Y005261D03*
X025551Y005281D03*
X025551Y005301D03*
X025571Y005401D03*
X025571Y005421D03*
X025571Y005441D03*
X025571Y005461D03*
X025591Y005501D03*
X025591Y005521D03*
X025591Y005541D03*
X025611Y005581D03*
X025611Y005601D03*
X025611Y005621D03*
X025611Y005641D03*
X025631Y005681D03*
X025631Y005701D03*
X025631Y005721D03*
X025631Y005741D03*
X025651Y005821D03*
X025651Y005841D03*
X025651Y005861D03*
X025651Y005881D03*
X025651Y005901D03*
X025671Y005921D03*
X025671Y005941D03*
X025671Y005961D03*
X025671Y005981D03*
X025691Y006001D03*
X025691Y006021D03*
X025691Y006041D03*
X025691Y006061D03*
X025691Y006081D03*
X025711Y006101D03*
X025711Y006121D03*
X025711Y006141D03*
X025711Y006161D03*
X025711Y006181D03*
X025731Y006281D03*
X025731Y006301D03*
X025731Y006321D03*
X025731Y006341D03*
X025751Y006381D03*
X025751Y006401D03*
X025751Y006421D03*
X025751Y006441D03*
X025771Y006481D03*
X025771Y006501D03*
X025771Y006521D03*
X025791Y006561D03*
X025791Y006581D03*
X025791Y006601D03*
X025791Y006621D03*
X025811Y006741D03*
X025811Y006761D03*
X025811Y006781D03*
X025811Y006801D03*
X025831Y006821D03*
X025831Y006841D03*
X025831Y006861D03*
X025831Y006881D03*
X025851Y006921D03*
X025851Y006941D03*
X025851Y006961D03*
X025871Y007001D03*
X025871Y007021D03*
X025871Y007041D03*
X025871Y007061D03*
X025871Y007081D03*
X025891Y007181D03*
X025891Y007201D03*
X025891Y007221D03*
X025891Y007241D03*
X025911Y007281D03*
X025911Y007301D03*
X025911Y007321D03*
X025911Y007341D03*
X025931Y007361D03*
X025931Y007381D03*
X025931Y007401D03*
X025931Y007421D03*
X025931Y007441D03*
X025951Y007461D03*
X025951Y007481D03*
X025951Y007501D03*
X025951Y007521D03*
X025971Y007621D03*
X025971Y007641D03*
X025971Y007661D03*
X025971Y007681D03*
X025971Y007701D03*
X025991Y007721D03*
X025991Y007741D03*
X025991Y007761D03*
X025991Y007781D03*
X026011Y007821D03*
X026011Y007841D03*
X026011Y007861D03*
X026031Y007901D03*
X026031Y007921D03*
X026031Y007941D03*
X026031Y007961D03*
X026031Y007981D03*
X026051Y008061D03*
X026051Y008081D03*
X026051Y008101D03*
X026051Y008121D03*
X026071Y008161D03*
X026071Y008181D03*
X026071Y008201D03*
X026091Y008241D03*
X026091Y008261D03*
X026091Y008281D03*
X026111Y008321D03*
X026111Y008341D03*
X026111Y008361D03*
X026111Y008381D03*
X026131Y008461D03*
X026131Y008481D03*
X026131Y008501D03*
X026131Y008521D03*
X026151Y008581D03*
X026151Y008601D03*
X026171Y008641D03*
X026171Y008661D03*
X026171Y008681D03*
X026191Y008721D03*
X026191Y008741D03*
X026191Y008761D03*
X026191Y008781D03*
X026211Y008841D03*
X026211Y008861D03*
X026211Y008881D03*
X026211Y008901D03*
X026231Y008941D03*
X026231Y008961D03*
X026231Y008981D03*
X026251Y009001D03*
X026251Y009021D03*
X026251Y009041D03*
X026251Y009061D03*
X026271Y009081D03*
X026271Y009101D03*
X026271Y009121D03*
X026291Y009201D03*
X026291Y009221D03*
X026291Y009241D03*
X026311Y009281D03*
X026311Y009301D03*
X026331Y009341D03*
X026331Y009361D03*
X026331Y009381D03*
X026351Y009401D03*
X026351Y009421D03*
X026351Y009441D03*
X026371Y009521D03*
X026371Y009541D03*
X026371Y009561D03*
X026391Y009601D03*
X026391Y009621D03*
X026411Y009661D03*
X026411Y009681D03*
X026431Y009701D03*
X026431Y009721D03*
X026431Y009741D03*
X026431Y009761D03*
X026451Y009801D03*
X026451Y009821D03*
X026451Y009841D03*
X026471Y009881D03*
X026471Y009901D03*
X026491Y009941D03*
X026511Y009981D03*
X026511Y010001D03*
X026531Y010061D03*
X026531Y010081D03*
X026531Y010101D03*
X026551Y010141D03*
X026571Y010181D03*
X026591Y010241D03*
X026611Y010301D03*
X026611Y010321D03*
X026611Y010341D03*
X026631Y010361D03*
X026651Y010421D03*
X026671Y010441D03*
X026671Y010461D03*
X026671Y010481D03*
X026691Y010521D03*
X026711Y010581D03*
X026731Y010601D03*
X026751Y010661D03*
X026771Y010701D03*
X026771Y010721D03*
X026791Y010741D03*
X026811Y010781D03*
X026831Y010821D03*
X026831Y010841D03*
X026851Y010861D03*
X026851Y010881D03*
X026911Y010981D03*
X026931Y011001D03*
X026931Y011021D03*
X026951Y011061D03*
X026991Y011121D03*
X027071Y011241D03*
X027091Y011281D03*
X027171Y011381D03*
X027231Y011461D03*
X027471Y011701D03*
X029991Y010881D03*
X030011Y010901D03*
X030031Y010961D03*
X030051Y011001D03*
X030051Y011021D03*
X030071Y011061D03*
X030111Y011141D03*
X030131Y011161D03*
X030191Y011281D03*
X030211Y011301D03*
X030271Y011381D03*
X029971Y010821D03*
X029951Y010761D03*
X029951Y010741D03*
X029931Y010701D03*
X029931Y010681D03*
X029911Y010661D03*
X029911Y010641D03*
X029891Y010601D03*
X029891Y010581D03*
X029871Y010501D03*
X029871Y010481D03*
X029851Y010441D03*
X029851Y010421D03*
X029831Y010381D03*
X029831Y010361D03*
X029831Y010341D03*
X029811Y010321D03*
X029811Y010301D03*
X029811Y010281D03*
X029791Y010201D03*
X029791Y010181D03*
X029791Y010161D03*
X029771Y010121D03*
X029771Y010101D03*
X029751Y010061D03*
X029751Y010041D03*
X029751Y010021D03*
X029731Y009981D03*
X029731Y009961D03*
X029731Y009941D03*
X029711Y009841D03*
X029711Y009821D03*
X029711Y009801D03*
X029691Y009781D03*
X029691Y009761D03*
X029691Y009741D03*
X029691Y009721D03*
X029671Y009701D03*
X029671Y009681D03*
X029671Y009661D03*
X029571Y009221D03*
X029571Y009201D03*
X029571Y009181D03*
X029571Y009161D03*
X029551Y009101D03*
X029551Y009081D03*
X029551Y009061D03*
X029551Y009041D03*
X029531Y009001D03*
X029531Y008981D03*
X029531Y008961D03*
X029511Y008921D03*
X029511Y008901D03*
X029511Y008881D03*
X029491Y008841D03*
X029491Y008821D03*
X029491Y008801D03*
X029471Y008721D03*
X029471Y008701D03*
X029471Y008681D03*
X029471Y008661D03*
X029451Y008621D03*
X029451Y008601D03*
X029451Y008581D03*
X029431Y008561D03*
X029431Y008541D03*
X029431Y008521D03*
X029431Y008501D03*
X029411Y008481D03*
X029411Y008461D03*
X029411Y008441D03*
X029391Y008361D03*
X029391Y008341D03*
X029391Y008321D03*
X029391Y008301D03*
X029371Y008261D03*
X029371Y008241D03*
X029351Y008201D03*
X029351Y008181D03*
X029331Y008121D03*
X029331Y008101D03*
X029331Y008081D03*
X029311Y008001D03*
X029311Y007981D03*
X029311Y007961D03*
X029291Y007921D03*
X029291Y007901D03*
X029291Y007881D03*
X029271Y007861D03*
X029271Y007841D03*
X029271Y007821D03*
X029251Y007781D03*
X029251Y007761D03*
X029251Y007741D03*
X029251Y007721D03*
X029231Y007661D03*
X029231Y007641D03*
X029231Y007621D03*
X029231Y007601D03*
X029211Y007581D03*
X029211Y007561D03*
X029211Y007541D03*
X029211Y007521D03*
X029191Y007501D03*
X029191Y007481D03*
X029191Y007461D03*
X029171Y007441D03*
X029171Y007421D03*
X029171Y007401D03*
X029171Y007381D03*
X029151Y007341D03*
X029151Y007321D03*
X029151Y007301D03*
X029151Y007281D03*
X029131Y007261D03*
X029131Y007241D03*
X029111Y007201D03*
X029091Y007141D03*
X029091Y007121D03*
X029071Y007081D03*
X029071Y007061D03*
X029071Y007041D03*
X029051Y007001D03*
X029031Y006961D03*
X029011Y006921D03*
X029011Y006901D03*
X028991Y006861D03*
X028991Y006841D03*
X028971Y006801D03*
X028951Y006781D03*
X028931Y006721D03*
X028911Y006701D03*
X028851Y006581D03*
X028831Y006561D03*
X028771Y006481D03*
X028391Y006241D03*
X030871Y005281D03*
X030871Y005261D03*
X030871Y005241D03*
X030851Y005201D03*
X030851Y005181D03*
X030851Y005161D03*
X030851Y005141D03*
X030831Y005021D03*
X030831Y005001D03*
X030831Y004981D03*
X030831Y004961D03*
X030811Y004941D03*
X030811Y004921D03*
X030811Y004901D03*
X030811Y004881D03*
X030791Y004841D03*
X030791Y004821D03*
X030791Y004801D03*
X030771Y004761D03*
X030771Y004741D03*
X030771Y004721D03*
X030771Y004701D03*
X030771Y004681D03*
X030751Y004601D03*
X030751Y004581D03*
X030751Y004561D03*
X030751Y004541D03*
X030751Y004521D03*
X030731Y004481D03*
X030731Y004461D03*
X030731Y004441D03*
X030711Y004401D03*
X030711Y004381D03*
X030711Y004361D03*
X030691Y004321D03*
X030691Y004301D03*
X030691Y004281D03*
X030691Y004261D03*
X030671Y004181D03*
X030671Y004161D03*
X030671Y004141D03*
X030671Y004121D03*
X030651Y004081D03*
X030651Y004061D03*
X030651Y004041D03*
X030651Y004021D03*
X030631Y004001D03*
X030631Y003981D03*
X030631Y003961D03*
X030611Y003921D03*
X030611Y003901D03*
X030611Y003881D03*
X030611Y003861D03*
X030591Y003781D03*
X030591Y003761D03*
X030591Y003741D03*
X030591Y003721D03*
X030571Y003681D03*
X030571Y003661D03*
X030551Y003621D03*
X030551Y003601D03*
X030551Y003581D03*
X030531Y003541D03*
X030531Y003521D03*
X030531Y003501D03*
X030511Y003421D03*
X030511Y003401D03*
X030511Y003381D03*
X030511Y003361D03*
X030491Y003341D03*
X030491Y003321D03*
X030491Y003301D03*
X030471Y003281D03*
X030471Y003261D03*
X030471Y003241D03*
X030451Y003201D03*
X030451Y003181D03*
X030451Y003161D03*
X030431Y003101D03*
X030431Y003081D03*
X030431Y003061D03*
X030431Y003041D03*
X030411Y003021D03*
X030411Y003001D03*
X030411Y002981D03*
X030391Y002961D03*
X030391Y002941D03*
X030391Y002921D03*
X030371Y002881D03*
X030371Y002861D03*
X030351Y002781D03*
X030351Y002761D03*
X030351Y002741D03*
X030331Y002721D03*
X030331Y002701D03*
X030311Y002661D03*
X030311Y002641D03*
X030291Y002621D03*
X030291Y002601D03*
X030291Y002581D03*
X030271Y002521D03*
X030271Y002501D03*
X030271Y002481D03*
X030251Y002461D03*
X030251Y002441D03*
X030231Y002401D03*
X030211Y002361D03*
X030211Y002341D03*
X030191Y002281D03*
X030191Y002261D03*
X030191Y002241D03*
X030171Y002221D03*
X030151Y002161D03*
X030131Y002121D03*
X030131Y002101D03*
X030111Y002061D03*
X030111Y002041D03*
X030091Y002001D03*
X030071Y001961D03*
X030051Y001921D03*
X030051Y001901D03*
X030031Y001861D03*
X030031Y001841D03*
X030011Y001821D03*
X029971Y001741D03*
X029971Y001721D03*
X029951Y001701D03*
X029951Y001681D03*
X029891Y001581D03*
X029891Y001561D03*
X029871Y001541D03*
X029871Y001521D03*
X029811Y001441D03*
X029811Y001421D03*
X029791Y001401D03*
X029771Y001361D03*
X029651Y001181D03*
X029631Y001161D03*
X030891Y005321D03*
X030891Y005341D03*
X030891Y005361D03*
X030891Y005381D03*
X030911Y005421D03*
X030911Y005441D03*
X030911Y005461D03*
X030911Y005481D03*
X030911Y005501D03*
X030931Y005581D03*
X030931Y005601D03*
X030931Y005621D03*
X030931Y005641D03*
X030931Y005661D03*
X030951Y005681D03*
X030951Y005701D03*
X030951Y005721D03*
X030951Y005741D03*
X030951Y005761D03*
X030971Y005781D03*
X030971Y005801D03*
X030971Y005821D03*
X030971Y005841D03*
X030991Y005861D03*
X030991Y005881D03*
X030991Y005901D03*
X030991Y005921D03*
X030991Y005941D03*
X031011Y006041D03*
X031011Y006061D03*
X031011Y006081D03*
X031011Y006101D03*
X031011Y006121D03*
X031031Y006141D03*
X031031Y006161D03*
X031031Y006181D03*
X031031Y006201D03*
X031051Y006281D03*
X031051Y006301D03*
X031071Y006321D03*
X031071Y006341D03*
X031071Y006361D03*
X031071Y006381D03*
X031091Y006501D03*
X031091Y006521D03*
X031091Y006541D03*
X031091Y006561D03*
X031111Y006601D03*
X031111Y006621D03*
X031111Y006641D03*
X031131Y006681D03*
X031131Y006701D03*
X031131Y006721D03*
X031131Y006741D03*
X031151Y006781D03*
X031151Y006801D03*
X031151Y006821D03*
X031151Y006841D03*
X031171Y006941D03*
X031171Y006961D03*
X031171Y006981D03*
X031171Y007001D03*
X031191Y007041D03*
X031191Y007061D03*
X031191Y007081D03*
X031211Y007121D03*
X031211Y007141D03*
X031211Y007161D03*
X031231Y007201D03*
X031231Y007221D03*
X031231Y007241D03*
X031231Y007261D03*
X031251Y007361D03*
X031251Y007381D03*
X031251Y007401D03*
X031251Y007421D03*
X031271Y007441D03*
X031271Y007461D03*
X031271Y007481D03*
X031271Y007501D03*
X031291Y007521D03*
X031291Y007541D03*
X031291Y007561D03*
X031291Y007581D03*
X031311Y007601D03*
X031311Y007621D03*
X031311Y007641D03*
X031311Y007661D03*
X031311Y007681D03*
X031331Y007761D03*
X031331Y007781D03*
X031331Y007801D03*
X031331Y007821D03*
X031351Y007861D03*
X031351Y007881D03*
X031351Y007901D03*
X031371Y007941D03*
X031371Y007961D03*
X031391Y008001D03*
X031391Y008021D03*
X031391Y008041D03*
X031391Y008061D03*
X031411Y008141D03*
X031411Y008161D03*
X031411Y008181D03*
X031431Y008221D03*
X031431Y008241D03*
X031431Y008261D03*
X031451Y008301D03*
X031451Y008321D03*
X031451Y008341D03*
X031471Y008381D03*
X031471Y008401D03*
X031471Y008421D03*
X031491Y008501D03*
X031491Y008521D03*
X031491Y008541D03*
X031491Y008561D03*
X031511Y008581D03*
X031511Y008601D03*
X031511Y008621D03*
X031531Y008661D03*
X031531Y008681D03*
X031551Y008721D03*
X031551Y008741D03*
X031551Y008761D03*
X031551Y008781D03*
X031571Y008841D03*
X031571Y008861D03*
X031571Y008881D03*
X031571Y008901D03*
X031591Y008921D03*
X031591Y008941D03*
X031591Y008961D03*
X031611Y008981D03*
X031611Y009001D03*
X031611Y009021D03*
X031631Y009061D03*
X031631Y009081D03*
X031631Y009101D03*
X031631Y009121D03*
X031651Y009181D03*
X031651Y009201D03*
X031751Y009601D03*
X031751Y009621D03*
X031771Y009641D03*
X031771Y009661D03*
X031791Y009701D03*
X031791Y009721D03*
X031791Y009741D03*
X031811Y009801D03*
X031811Y009821D03*
X031811Y009841D03*
X031811Y009861D03*
X031831Y009881D03*
X031831Y009901D03*
X031851Y009941D03*
X031851Y009961D03*
X031871Y010001D03*
X031871Y010021D03*
X031891Y010081D03*
X031891Y010101D03*
X031891Y010121D03*
X031911Y010161D03*
X031911Y010181D03*
X031931Y010201D03*
X031931Y010221D03*
X031951Y010261D03*
X031951Y010281D03*
X031951Y010301D03*
X031971Y010341D03*
X031971Y010361D03*
X031991Y010401D03*
X031991Y010421D03*
X032011Y010441D03*
X032011Y010461D03*
X032031Y010501D03*
X032031Y010521D03*
X032051Y010561D03*
X032051Y010581D03*
X032071Y010621D03*
X032091Y010661D03*
X032111Y010701D03*
X032111Y010721D03*
X032131Y010761D03*
X032191Y010881D03*
X032211Y010921D03*
X032271Y011041D03*
X032351Y011161D03*
X032371Y011201D03*
X032451Y011301D03*
D29*
X032281Y011061D03*
X032201Y010901D03*
X032121Y010741D03*
X032041Y010541D03*
X031961Y010321D03*
X031881Y010061D03*
X031881Y010041D03*
X031801Y009781D03*
X031801Y009761D03*
X031641Y009161D03*
X031641Y009141D03*
X031561Y008821D03*
X031561Y008801D03*
X031481Y008481D03*
X031481Y008461D03*
X031481Y008441D03*
X031401Y008121D03*
X031401Y008101D03*
X031401Y008081D03*
X031321Y007741D03*
X031321Y007721D03*
X031321Y007701D03*
X031241Y007341D03*
X031241Y007321D03*
X031241Y007301D03*
X031241Y007281D03*
X031161Y006921D03*
X031161Y006901D03*
X031161Y006881D03*
X031161Y006861D03*
X031081Y006481D03*
X031081Y006461D03*
X031081Y006441D03*
X031081Y006421D03*
X031081Y006401D03*
X031001Y006021D03*
X031001Y006001D03*
X031001Y005981D03*
X031001Y005961D03*
X030921Y005561D03*
X030921Y005541D03*
X030921Y005521D03*
X030841Y005121D03*
X030841Y005101D03*
X030841Y005081D03*
X030841Y005061D03*
X030841Y005041D03*
X030761Y004661D03*
X030761Y004641D03*
X030761Y004621D03*
X030681Y004241D03*
X030681Y004221D03*
X030681Y004201D03*
X030601Y003841D03*
X030601Y003821D03*
X030601Y003801D03*
X030521Y003481D03*
X030521Y003461D03*
X030521Y003441D03*
X030441Y003141D03*
X030441Y003121D03*
X030361Y002841D03*
X030361Y002821D03*
X030361Y002801D03*
X030281Y002561D03*
X030281Y002541D03*
X030201Y002321D03*
X030201Y002301D03*
X030121Y002081D03*
X030041Y001881D03*
X029721Y001281D03*
X025401Y004541D03*
X025401Y004561D03*
X025321Y004201D03*
X025321Y004181D03*
X025321Y004161D03*
X025241Y003841D03*
X025241Y003821D03*
X025161Y003521D03*
X025161Y003501D03*
X025161Y003481D03*
X024921Y003301D03*
X025001Y002861D03*
X025001Y002841D03*
X024921Y002561D03*
X024921Y002541D03*
X024841Y002301D03*
X024841Y002281D03*
X024761Y002041D03*
X024681Y001841D03*
X024601Y001661D03*
X024441Y001361D03*
X025481Y004921D03*
X025481Y004941D03*
X025481Y004961D03*
X025561Y005321D03*
X025561Y005341D03*
X025561Y005361D03*
X025561Y005381D03*
X025641Y005761D03*
X025641Y005781D03*
X025641Y005801D03*
X025721Y006201D03*
X025721Y006221D03*
X025721Y006241D03*
X025721Y006261D03*
X025801Y006641D03*
X025801Y006661D03*
X025801Y006681D03*
X025801Y006701D03*
X025801Y006721D03*
X025881Y007101D03*
X025881Y007121D03*
X025881Y007141D03*
X025881Y007161D03*
X025961Y007541D03*
X025961Y007561D03*
X025961Y007581D03*
X025961Y007601D03*
X026041Y008001D03*
X026041Y008021D03*
X026041Y008041D03*
X026121Y008401D03*
X026121Y008421D03*
X026121Y008441D03*
X026201Y008801D03*
X026201Y008821D03*
X026281Y009141D03*
X026281Y009161D03*
X026281Y009181D03*
X026361Y009461D03*
X026361Y009481D03*
X026361Y009501D03*
X026441Y009781D03*
X026521Y010021D03*
X026521Y010041D03*
X026601Y010261D03*
X026601Y010281D03*
X026681Y010501D03*
X026761Y010681D03*
X027001Y011141D03*
X029801Y010261D03*
X029801Y010241D03*
X029801Y010221D03*
X029881Y010521D03*
X029881Y010541D03*
X029881Y010561D03*
X029961Y010781D03*
X029961Y010801D03*
X030041Y010981D03*
X029721Y009921D03*
X029721Y009901D03*
X029721Y009881D03*
X029721Y009861D03*
X029561Y009141D03*
X029561Y009121D03*
X029481Y008781D03*
X029481Y008761D03*
X029481Y008741D03*
X029401Y008421D03*
X029401Y008401D03*
X029401Y008381D03*
X029321Y008061D03*
X029321Y008041D03*
X029321Y008021D03*
X029241Y007701D03*
X029241Y007681D03*
X029161Y007361D03*
X029081Y007101D03*
X029001Y006881D03*
D30*
X031681Y009321D03*
X025061Y003241D03*
X025081Y003141D03*
D31*
X025091Y003161D03*
X025091Y003181D03*
X029591Y009361D03*
X031671Y009301D03*
X031671Y009241D03*
D32*
X031661Y009281D03*
X029581Y009341D03*
X031201Y011901D03*
X031401Y011941D03*
X025101Y003201D03*
D33*
X025091Y003221D03*
X029571Y009321D03*
X031651Y009261D03*
D34*
X031051Y006261D03*
X031051Y006241D03*
X031031Y006221D03*
D35*
X031861Y009161D03*
D36*
X029611Y009301D03*
X029591Y009381D03*
X031131Y011881D03*
X033491Y012001D03*
D37*
X031281Y011921D03*
D38*
X031561Y011961D03*
D39*
X031681Y011981D03*
D40*
X031821Y012001D03*
X032041Y012021D03*
D41*
X032181Y012041D03*
D42*
X032211Y012061D03*
D43*
X032241Y012081D03*
D44*
X032331Y012101D03*
D45*
X037101Y011851D02*
X037101Y011351D01*
X037351Y011101D01*
X037851Y011101D01*
X038101Y011351D01*
X038101Y011851D01*
X037851Y012101D01*
X038101Y012351D01*
X038101Y012851D01*
X037851Y013101D01*
X037351Y013101D01*
X037101Y012851D01*
X037101Y012351D01*
X037351Y012101D01*
X037851Y012101D01*
X037351Y012101D02*
X037101Y011851D01*
X037351Y011101D02*
X037101Y010851D01*
X037101Y010351D01*
X037351Y010101D01*
X037851Y010101D01*
X038101Y010351D01*
X038101Y010851D01*
X037851Y011101D01*
X037851Y010101D02*
X038101Y009851D01*
X038101Y009351D01*
X037851Y009101D01*
X038101Y008851D01*
X038101Y008351D01*
X037851Y008101D01*
X038101Y007851D01*
X038101Y007351D01*
X037851Y007101D01*
X038101Y006851D01*
X038101Y006351D01*
X037851Y006101D01*
X038101Y005851D01*
X038101Y005351D01*
X037851Y005101D01*
X038101Y004851D01*
X038101Y004351D01*
X037851Y004101D01*
X038101Y003851D01*
X038101Y003351D01*
X037851Y003101D01*
X038101Y002851D01*
X038101Y002351D01*
X037851Y002101D01*
X038101Y001851D01*
X038101Y001351D01*
X037851Y001101D01*
X037351Y001101D01*
X037101Y001351D01*
X037101Y001851D01*
X037351Y002101D01*
X037101Y002351D01*
X037101Y002851D01*
X037351Y003101D01*
X037851Y003101D01*
X037351Y003101D02*
X037101Y003351D01*
X037101Y003851D01*
X037351Y004101D01*
X037101Y004351D01*
X037101Y004851D01*
X037351Y005101D01*
X037101Y005351D01*
X037101Y005851D01*
X037351Y006101D01*
X037851Y006101D01*
X037351Y006101D02*
X037101Y006351D01*
X037101Y006851D01*
X037351Y007101D01*
X037101Y007351D01*
X037101Y007851D01*
X037351Y008101D01*
X037101Y008351D01*
X037101Y008851D01*
X037351Y009101D01*
X037851Y009101D01*
X037351Y009101D02*
X037101Y009351D01*
X037101Y009851D01*
X037351Y010101D01*
X037351Y008101D02*
X037851Y008101D01*
X037851Y007101D02*
X037351Y007101D01*
X037351Y005101D02*
X037851Y005101D01*
X037851Y004101D02*
X037351Y004101D01*
X037351Y002101D02*
X037851Y002101D01*
X018101Y005601D02*
X018101Y005801D01*
X018101Y005601D02*
X017901Y005601D01*
X017301Y005601D02*
X017101Y005601D01*
X017101Y005801D01*
X017101Y006401D02*
X017101Y006601D01*
X017301Y006601D01*
X017901Y006601D02*
X018101Y006601D01*
X018101Y006401D01*
X018101Y008101D02*
X018101Y008301D01*
X018101Y008101D02*
X017901Y008101D01*
X017301Y008101D02*
X017101Y008101D01*
X017101Y008301D01*
X017101Y008901D02*
X017101Y009101D01*
X017301Y009101D01*
X017901Y009101D02*
X018101Y009101D01*
X018101Y008901D01*
X018101Y010601D02*
X018101Y010801D01*
X018101Y010601D02*
X017901Y010601D01*
X017301Y010601D02*
X017101Y010601D01*
X017101Y010801D01*
X017101Y011401D02*
X017101Y011601D01*
X017301Y011601D01*
X017901Y011601D02*
X018101Y011601D01*
X018101Y011401D01*
X018101Y013101D02*
X018101Y013301D01*
X018101Y013101D02*
X017901Y013101D01*
X017301Y013101D02*
X017101Y013101D01*
X017101Y013301D01*
X017101Y013901D02*
X017101Y014101D01*
X017301Y014101D01*
X017901Y014101D02*
X018101Y014101D01*
X018101Y013901D01*
X018101Y015601D02*
X018101Y015801D01*
X018101Y015601D02*
X017901Y015601D01*
X017301Y015601D02*
X017101Y015601D01*
X017101Y015801D01*
X017101Y016401D02*
X017101Y016601D01*
X017301Y016601D01*
X017901Y016601D02*
X018101Y016601D01*
X018101Y016401D01*
X018101Y018101D02*
X018101Y018301D01*
X018101Y018101D02*
X017901Y018101D01*
X017301Y018101D02*
X017101Y018101D01*
X017101Y018301D01*
X017101Y018901D02*
X017101Y019101D01*
X017301Y019101D01*
X017901Y019101D02*
X018101Y019101D01*
X018101Y018901D01*
X018101Y020601D02*
X018101Y020801D01*
X018101Y020601D02*
X017901Y020601D01*
X017301Y020601D02*
X017101Y020601D01*
X017101Y020801D01*
X017101Y021401D02*
X017101Y021601D01*
X017301Y021601D01*
X017901Y021601D02*
X018101Y021601D01*
X018101Y021401D01*
X018101Y023101D02*
X018101Y023301D01*
X018101Y023101D02*
X017901Y023101D01*
X017301Y023101D02*
X017101Y023101D01*
X017101Y023301D01*
X017101Y023901D02*
X017101Y024101D01*
X017301Y024101D01*
X017901Y024101D02*
X018101Y024101D01*
X018101Y023901D01*
X019101Y025601D02*
X019301Y025601D01*
X019101Y025601D02*
X019101Y025801D01*
X019101Y026401D02*
X019101Y026601D01*
X019301Y026601D01*
X019101Y026601D02*
X019101Y026801D01*
X019101Y026601D02*
X018901Y026601D01*
X018301Y026601D02*
X018101Y026601D01*
X018101Y026801D01*
X018101Y027401D02*
X018101Y027601D01*
X018301Y027601D01*
X018901Y027601D02*
X019101Y027601D01*
X019101Y027401D01*
X019901Y026601D02*
X020101Y026601D01*
X020101Y026401D01*
X020101Y025801D02*
X020101Y025601D01*
X019901Y025601D01*
X022601Y023851D02*
X022851Y024101D01*
X023351Y024101D01*
X023601Y023851D01*
X023851Y024101D01*
X024351Y024101D01*
X024601Y023851D01*
X024601Y023351D01*
X024351Y023101D01*
X023851Y023101D01*
X023601Y023351D01*
X023351Y023101D01*
X022851Y023101D01*
X022601Y023351D01*
X022601Y023851D01*
X023601Y023851D02*
X023601Y023351D01*
X015601Y025601D02*
X015601Y025801D01*
X015601Y025601D02*
X015401Y025601D01*
X014801Y025601D02*
X014601Y025601D01*
X014601Y025801D01*
X014601Y026401D02*
X014601Y026601D01*
X014801Y026601D01*
X015401Y026601D02*
X015601Y026601D01*
X015601Y026401D01*
X013101Y026401D02*
X013101Y026601D01*
X012901Y026601D01*
X012301Y026601D02*
X012101Y026601D01*
X012101Y026401D01*
X012101Y025801D02*
X012101Y025601D01*
X012301Y025601D01*
X012901Y025601D02*
X013101Y025601D01*
X013101Y025801D01*
X010601Y025801D02*
X010601Y025601D01*
X010401Y025601D01*
X009801Y025601D02*
X009601Y025601D01*
X009601Y025801D01*
X009601Y026401D02*
X009601Y026601D01*
X009801Y026601D01*
X010401Y026601D02*
X010601Y026601D01*
X010601Y026401D01*
X008101Y026401D02*
X008101Y026601D01*
X007901Y026601D01*
X007301Y026601D02*
X007101Y026601D01*
X007101Y026401D01*
X007101Y025801D02*
X007101Y025601D01*
X007301Y025601D01*
X007901Y025601D02*
X008101Y025601D01*
X008101Y025801D01*
X005601Y024101D02*
X005401Y024101D01*
X005601Y024101D02*
X005601Y023901D01*
X005601Y023301D02*
X005601Y023101D01*
X005401Y023101D01*
X004801Y023101D02*
X004601Y023101D01*
X004601Y023301D01*
X004601Y023901D02*
X004601Y024101D01*
X004801Y024101D01*
X004801Y021601D02*
X004601Y021601D01*
X004601Y021401D01*
X004601Y020801D02*
X004601Y020601D01*
X004801Y020601D01*
X005401Y020601D02*
X005601Y020601D01*
X005601Y020801D01*
X005601Y021401D02*
X005601Y021601D01*
X005401Y021601D01*
X005401Y019101D02*
X005601Y019101D01*
X005601Y018901D01*
X005601Y018301D02*
X005601Y018101D01*
X005401Y018101D01*
X004801Y018101D02*
X004601Y018101D01*
X004601Y018301D01*
X004601Y018901D02*
X004601Y019101D01*
X004801Y019101D01*
X004801Y016601D02*
X004601Y016601D01*
X004601Y016401D01*
X004601Y015801D02*
X004601Y015601D01*
X004801Y015601D01*
X005401Y015601D02*
X005601Y015601D01*
X005601Y015801D01*
X005601Y016401D02*
X005601Y016601D01*
X005401Y016601D01*
X005401Y014101D02*
X005601Y014101D01*
X005601Y013901D01*
X005601Y013301D02*
X005601Y013101D01*
X005401Y013101D01*
X004801Y013101D02*
X004601Y013101D01*
X004601Y013301D01*
X004601Y013901D02*
X004601Y014101D01*
X004801Y014101D01*
X004801Y011601D02*
X004601Y011601D01*
X004601Y011401D01*
X004601Y010801D02*
X004601Y010601D01*
X004801Y010601D01*
X005401Y010601D02*
X005601Y010601D01*
X005601Y010801D01*
X005601Y011401D02*
X005601Y011601D01*
X005401Y011601D01*
X005401Y009101D02*
X005601Y009101D01*
X005601Y008901D01*
X004801Y009101D02*
X004601Y009101D01*
X004601Y008901D01*
X004601Y008301D02*
X004601Y008101D01*
X004801Y008101D01*
X005401Y008101D02*
X005601Y008101D01*
X005601Y008301D01*
X005601Y006601D02*
X005401Y006601D01*
X005601Y006601D02*
X005601Y006401D01*
X005601Y005801D02*
X005601Y005601D01*
X005401Y005601D01*
X004801Y005601D02*
X004601Y005601D01*
X004601Y005801D01*
X004601Y006401D02*
X004601Y006601D01*
X004801Y006601D01*
X007101Y004101D02*
X007101Y003901D01*
X007101Y004101D02*
X007301Y004101D01*
X007901Y004101D02*
X008101Y004101D01*
X008101Y003901D01*
X008101Y003301D02*
X008101Y003101D01*
X007901Y003101D01*
X007301Y003101D02*
X007101Y003101D01*
X007101Y003301D01*
X009601Y003301D02*
X009601Y003101D01*
X009801Y003101D01*
X010401Y003101D02*
X010601Y003101D01*
X010601Y003301D01*
X010601Y003901D02*
X010601Y004101D01*
X010401Y004101D01*
X009801Y004101D02*
X009601Y004101D01*
X009601Y003901D01*
X012101Y003901D02*
X012101Y004101D01*
X012301Y004101D01*
X012901Y004101D02*
X013101Y004101D01*
X013101Y003901D01*
X013101Y003301D02*
X013101Y003101D01*
X012901Y003101D01*
X012301Y003101D02*
X012101Y003101D01*
X012101Y003301D01*
X014601Y003301D02*
X014601Y003101D01*
X014801Y003101D01*
X015401Y003101D02*
X015601Y003101D01*
X015601Y003301D01*
X015601Y003901D02*
X015601Y004101D01*
X015401Y004101D01*
X014801Y004101D02*
X014601Y004101D01*
X014601Y003901D01*
M02*
