G75*
G70*
%OFA0B0*%
%FSLAX24Y24*%
%IPPOS*%
%LPD*%
%AMOC8*
5,1,8,0,0,1.08239X$1,22.5*
%
%ADD10C,0.0720*%
%ADD11OC8,0.1080*%
%ADD12R,0.0710X0.0790*%
D10*
X023101Y023281D02*
X023101Y023921D01*
X024101Y023921D02*
X024101Y023281D01*
X037281Y012601D02*
X037921Y012601D01*
X037921Y011601D02*
X037281Y011601D01*
X037281Y010601D02*
X037921Y010601D01*
X037921Y009601D02*
X037281Y009601D01*
X037281Y008601D02*
X037921Y008601D01*
X037921Y007601D02*
X037281Y007601D01*
X037281Y006601D02*
X037921Y006601D01*
X037921Y005601D02*
X037281Y005601D01*
X037281Y004601D02*
X037921Y004601D01*
X037921Y003601D02*
X037281Y003601D01*
X037281Y002601D02*
X037921Y002601D01*
X037921Y001601D02*
X037281Y001601D01*
D11*
X007601Y003601D03*
X010101Y003601D03*
X012601Y003601D03*
X015101Y003601D03*
X017601Y006101D03*
X017601Y008601D03*
X017601Y011101D03*
X017601Y013601D03*
X017601Y016101D03*
X017601Y018601D03*
X017601Y021101D03*
X017601Y023601D03*
X019601Y026101D03*
X018601Y027101D03*
X015101Y026101D03*
X012601Y026101D03*
X010101Y026101D03*
X007601Y026101D03*
X005101Y023601D03*
X005101Y021101D03*
X005101Y018601D03*
X005101Y016101D03*
X005101Y013601D03*
X005101Y011101D03*
X005101Y008601D03*
X005101Y006101D03*
D12*
X023041Y025101D03*
X024161Y025101D03*
X035041Y004601D03*
X036161Y004601D03*
X036161Y003601D03*
X036161Y002601D03*
X035041Y002601D03*
X035041Y003601D03*
X035041Y001601D03*
X036161Y001601D03*
M02*
