G75*
G70*
%OFA0B0*%
%FSLAX24Y24*%
%IPPOS*%
%LPD*%
%AMOC8*
5,1,8,0,0,1.08239X$1,22.5*
%
%ADD10C,0.0640*%
%ADD11OC8,0.1000*%
%ADD12C,0.0240*%
%ADD13C,0.0400*%
D10*
X023101Y023281D02*
X023101Y023921D01*
X024101Y023921D02*
X024101Y023281D01*
X037281Y012601D02*
X037921Y012601D01*
X037921Y011601D02*
X037281Y011601D01*
X037281Y010601D02*
X037921Y010601D01*
X037921Y009601D02*
X037281Y009601D01*
X037281Y008601D02*
X037921Y008601D01*
X037921Y007601D02*
X037281Y007601D01*
X037281Y006601D02*
X037921Y006601D01*
X037921Y005601D02*
X037281Y005601D01*
X037281Y004601D02*
X037921Y004601D01*
X037921Y003601D02*
X037281Y003601D01*
X037281Y002601D02*
X037921Y002601D01*
X037921Y001601D02*
X037281Y001601D01*
D11*
X007601Y003601D03*
X010101Y003601D03*
X012601Y003601D03*
X015101Y003601D03*
X017601Y006101D03*
X017601Y008601D03*
X017601Y011101D03*
X017601Y013601D03*
X017601Y016101D03*
X017601Y018601D03*
X017601Y021101D03*
X017601Y023601D03*
X019601Y026101D03*
X018601Y027101D03*
X015101Y026101D03*
X012601Y026101D03*
X010101Y026101D03*
X007601Y026101D03*
X005101Y023601D03*
X005101Y021101D03*
X005101Y018601D03*
X005101Y016101D03*
X005101Y013601D03*
X005101Y011101D03*
X005101Y008601D03*
X005101Y006101D03*
D12*
X004101Y007101D01*
X004101Y015101D01*
X005101Y016101D01*
X003601Y017101D02*
X005101Y018601D01*
X003601Y017101D02*
X003601Y008601D01*
X003101Y011101D02*
X003101Y019601D01*
X005101Y021101D01*
X012601Y026101D02*
X014101Y027101D01*
X016601Y027101D01*
X019601Y024601D01*
X025101Y011601D01*
X037601Y011601D01*
X037601Y008601D02*
X024601Y008601D01*
X017601Y023601D01*
X017601Y018601D02*
X023601Y007601D01*
X037601Y007601D01*
D13*
X003601Y008601D03*
X003101Y011101D03*
M02*
