%
M48
M72
T01C0.0200
T02C0.0400
%
T01
X7601Y3601
X10101Y3601
X12601Y3601
X15101Y3601
X17601Y6101
X17601Y8601
X17601Y11101
X17601Y13601
X17601Y16101
X17601Y18601
X17601Y21101
X17601Y23601
X19601Y26101
X18601Y27101
X15101Y26101
X12601Y26101
X10101Y26101
X7601Y26101
X5101Y23601
X5101Y21101
X5101Y18601
X5101Y16101
X5101Y13601
X5101Y11101
X3101Y11101
X3601Y8601
X5101Y8601
X5101Y6101
T02
X23101Y23601
X24101Y23601
X37601Y12601
X37601Y11601
X37601Y10601
X37601Y9601
X37601Y8601
X37601Y7601
X37601Y6601
X37601Y5601
X37601Y4601
X37601Y3601
X37601Y2601
X37601Y1601
M30
