%
M48
M72
T01C0.0200
T02C0.0400
%
T01
X1222Y3054
X1722Y3554
X4722Y4054
X8722Y5054
X10222Y5554
X12222Y5054
X12222Y6554
X12222Y8054
X12222Y9554
X10722Y9554
X12222Y11054
X12222Y12554
X12222Y14054
X10222Y12054
X8722Y13554
X7722Y13054
X5222Y12054
X3222Y10554
X3722Y10054
X4222Y9554
X2222Y11054
X2722Y11554
X6722Y8554
X9222Y8054
X6722Y15054
X9222Y16554
X10722Y16054
X11222Y17054
X11722Y17054
X10722Y17554
X11722Y18054
X13222Y16554
X7722Y18554
X4722Y21554
X4722Y22554
X5722Y25554
X2722Y27554
X1222Y25554
X2722Y30554
X8722Y29054
X9722Y29054
X9222Y30054
X9222Y31054
X10722Y31054
X10722Y31554
X12722Y30554
X16222Y30054
X16722Y30554
X17222Y31054
X17722Y29054
X16222Y28054
X17222Y27054
X20222Y27054
X20722Y27054
X21222Y27054
X21722Y27054
X22222Y27054
X22722Y26054
X21722Y24554
X21222Y25054
X20722Y25554
X20222Y26054
X22222Y24054
X23722Y24054
X24722Y25054
X26222Y23554
X27722Y23054
X28222Y22554
X28722Y23054
X29722Y22554
X29222Y22054
X29722Y23554
X30222Y24054
X30722Y24554
X31222Y25054
X31722Y25554
X32222Y26054
X32722Y26554
X30722Y28554
X29222Y29054
X27722Y28554
X27722Y29554
X26222Y28554
X25722Y29554
X27222Y31054
X28222Y31054
X28722Y31054
X27722Y27054
X27222Y27054
X26722Y27054
X26222Y27054
X22722Y29554
X22222Y31054
X21222Y31054
X10722Y27054
X10222Y26554
X10222Y26054
X10222Y25554
X10222Y25054
X10222Y24554
X10222Y24054
X10222Y23554
X10222Y23054
X10222Y22554
X11222Y22054
X11722Y21554
X17722Y21554
X20222Y21554
X22722Y21554
X23722Y21554
X24722Y21554
X25722Y22054
X26722Y21554
X25722Y19554
X27722Y16054
X30222Y16554
X31222Y16554
X32222Y16054
X30722Y15554
X28722Y13554
X28722Y12054
X28722Y10554
X30222Y11554
X31722Y13054
X34222Y12554
X35722Y11054
X36722Y10054
X36222Y9054
X35222Y9554
X37222Y11554
X37722Y10554
X34222Y6054
X33222Y5054
X31722Y4554
X30222Y5054
X28722Y4554
X28722Y3054
X28722Y6054
X28722Y7554
X28722Y9054
X30722Y9054
X32222Y7554
X34722Y3554
X38222Y4054
X38722Y3054
X34222Y15554
X30222Y18054
X21722Y17554
X21722Y19054
X9222Y27554
X35222Y28554
X36222Y28554
X20722Y2554
T02
X20722Y1554
X21722Y1554
X23722Y1554
X24722Y1554
X25722Y1554
X26722Y1554
X27722Y1554
X28722Y1554
X21222Y4554
X21222Y5554
X21222Y6554
X21222Y7554
X21222Y8554
X21222Y9554
X21222Y10554
X21222Y11554
X21222Y12554
X21222Y13554
X21222Y14554
X21222Y15554
X21722Y20554
X22722Y20554
X23722Y20554
X24722Y20554
X25722Y20554
X26722Y20554
X27722Y20554
X28722Y20554
X20122Y20554
X19122Y20554
X18122Y20554
X17122Y20554
X16122Y20554
X15122Y20554
X14122Y20554
X13122Y20554
X7722Y26554
X6722Y26554
X16722Y1554
X17722Y1554
X18722Y1554
X19722Y1554
M30
