G75*
G70*
%OFA0B0*%
%FSLAX24Y24*%
%IPPOS*%
%LPD*%
%AMOC8*
5,1,8,0,0,1.08239X$1,22.5*
%
%ADD10C,0.0640*%
%ADD11C,0.0400*%
%ADD12C,0.0240*%
%ADD13C,0.0100*%
D10*
X016722Y001234D02*
X016722Y001874D01*
X017722Y001874D02*
X017722Y001234D01*
X018722Y001234D02*
X018722Y001874D01*
X019722Y001874D02*
X019722Y001234D01*
X020722Y001234D02*
X020722Y001874D01*
X021722Y001874D02*
X021722Y001234D01*
X023722Y001234D02*
X023722Y001874D01*
X024722Y001874D02*
X024722Y001234D01*
X025722Y001234D02*
X025722Y001874D01*
X026722Y001874D02*
X026722Y001234D01*
X027722Y001234D02*
X027722Y001874D01*
X028722Y001874D02*
X028722Y001234D01*
X021542Y004554D02*
X020902Y004554D01*
X020902Y005554D02*
X021542Y005554D01*
X021542Y006554D02*
X020902Y006554D01*
X020902Y007554D02*
X021542Y007554D01*
X021542Y008554D02*
X020902Y008554D01*
X020902Y009554D02*
X021542Y009554D01*
X021542Y010554D02*
X020902Y010554D01*
X020902Y011554D02*
X021542Y011554D01*
X021542Y012554D02*
X020902Y012554D01*
X020902Y013554D02*
X021542Y013554D01*
X021542Y014554D02*
X020902Y014554D01*
X020902Y015554D02*
X021542Y015554D01*
X021722Y020234D02*
X021722Y020874D01*
X022722Y020874D02*
X022722Y020234D01*
X023722Y020234D02*
X023722Y020874D01*
X024722Y020874D02*
X024722Y020234D01*
X025722Y020234D02*
X025722Y020874D01*
X026722Y020874D02*
X026722Y020234D01*
X027722Y020234D02*
X027722Y020874D01*
X028722Y020874D02*
X028722Y020234D01*
X020122Y020234D02*
X020122Y020874D01*
X019122Y020874D02*
X019122Y020234D01*
X018122Y020234D02*
X018122Y020874D01*
X017122Y020874D02*
X017122Y020234D01*
X016122Y020234D02*
X016122Y020874D01*
X015122Y020874D02*
X015122Y020234D01*
X014122Y020234D02*
X014122Y020874D01*
X013122Y020874D02*
X013122Y020234D01*
X007722Y026234D02*
X007722Y026874D01*
X006722Y026874D02*
X006722Y026234D01*
D11*
X001222Y003054D03*
X001722Y003554D03*
X004722Y004054D03*
X008722Y005054D03*
X010222Y005554D03*
X012222Y005054D03*
X012222Y006554D03*
X012222Y008054D03*
X012222Y009554D03*
X010722Y009554D03*
X012222Y011054D03*
X012222Y012554D03*
X012222Y014054D03*
X010222Y012054D03*
X008722Y013554D03*
X007722Y013054D03*
X005222Y012054D03*
X003222Y010554D03*
X003722Y010054D03*
X004222Y009554D03*
X002222Y011054D03*
X002722Y011554D03*
X006722Y008554D03*
X009222Y008054D03*
X006722Y015054D03*
X009222Y016554D03*
X010722Y016054D03*
X011222Y017054D03*
X011722Y017054D03*
X010722Y017554D03*
X011722Y018054D03*
X013222Y016554D03*
X007722Y018554D03*
X004722Y021554D03*
X004722Y022554D03*
X005722Y025554D03*
X002722Y027554D03*
X001222Y025554D03*
X002722Y030554D03*
X008722Y029054D03*
X009722Y029054D03*
X009222Y030054D03*
X009222Y031054D03*
X010722Y031054D03*
X010722Y031554D03*
X012722Y030554D03*
X016222Y030054D03*
X016722Y030554D03*
X017222Y031054D03*
X017722Y029054D03*
X016222Y028054D03*
X017222Y027054D03*
X020222Y027054D03*
X020722Y027054D03*
X021222Y027054D03*
X021722Y027054D03*
X022222Y027054D03*
X022722Y026054D03*
X021722Y024554D03*
X021222Y025054D03*
X020722Y025554D03*
X020222Y026054D03*
X022222Y024054D03*
X023722Y024054D03*
X024722Y025054D03*
X026222Y023554D03*
X027722Y023054D03*
X028222Y022554D03*
X028722Y023054D03*
X029722Y022554D03*
X029222Y022054D03*
X029722Y023554D03*
X030222Y024054D03*
X030722Y024554D03*
X031222Y025054D03*
X031722Y025554D03*
X032222Y026054D03*
X032722Y026554D03*
X030722Y028554D03*
X029222Y029054D03*
X027722Y028554D03*
X027722Y029554D03*
X026222Y028554D03*
X025722Y029554D03*
X027222Y031054D03*
X028222Y031054D03*
X028722Y031054D03*
X027722Y027054D03*
X027222Y027054D03*
X026722Y027054D03*
X026222Y027054D03*
X022722Y029554D03*
X022222Y031054D03*
X021222Y031054D03*
X010722Y027054D03*
X010222Y026554D03*
X010222Y026054D03*
X010222Y025554D03*
X010222Y025054D03*
X010222Y024554D03*
X010222Y024054D03*
X010222Y023554D03*
X010222Y023054D03*
X010222Y022554D03*
X011222Y022054D03*
X011722Y021554D03*
X017722Y021554D03*
X020222Y021554D03*
X022722Y021554D03*
X023722Y021554D03*
X024722Y021554D03*
X025722Y022054D03*
X026722Y021554D03*
X025722Y019554D03*
X027722Y016054D03*
X030222Y016554D03*
X031222Y016554D03*
X032222Y016054D03*
X030722Y015554D03*
X028722Y013554D03*
X028722Y012054D03*
X028722Y010554D03*
X030222Y011554D03*
X031722Y013054D03*
X034222Y012554D03*
X035722Y011054D03*
X036722Y010054D03*
X036222Y009054D03*
X035222Y009554D03*
X037222Y011554D03*
X037722Y010554D03*
X034222Y006054D03*
X033222Y005054D03*
X031722Y004554D03*
X030222Y005054D03*
X028722Y004554D03*
X028722Y003054D03*
X028722Y006054D03*
X028722Y007554D03*
X028722Y009054D03*
X030722Y009054D03*
X032222Y007554D03*
X034722Y003554D03*
X038222Y004054D03*
X038722Y003054D03*
X034222Y015554D03*
X030222Y018054D03*
X021722Y017554D03*
X021722Y019054D03*
X009222Y027554D03*
X035222Y028554D03*
X036222Y028554D03*
X020722Y002554D03*
D12*
X007222Y002554D01*
X006722Y003054D01*
X006722Y008554D01*
X006722Y015054D01*
X007722Y013054D02*
X007722Y018554D01*
X005222Y022554D02*
X004722Y022554D01*
X005222Y022554D02*
X009222Y027054D01*
X009222Y027554D01*
X009222Y030054D01*
X016222Y030054D02*
X016222Y028054D01*
X034222Y015554D02*
X034222Y012554D01*
X034222Y006054D01*
X033222Y005054D02*
X033222Y003554D01*
X032722Y003054D01*
X028722Y003054D01*
X035222Y028554D02*
X036222Y028554D01*
D13*
X032722Y026554D02*
X038722Y017054D01*
X038722Y003054D01*
X038222Y004054D02*
X038222Y017054D01*
X032222Y026054D01*
X031722Y025554D02*
X037722Y017054D01*
X037722Y010554D01*
X036722Y010054D02*
X036722Y017054D01*
X030722Y024554D01*
X031222Y025054D02*
X037222Y017054D01*
X037222Y011554D01*
X035722Y011054D02*
X035722Y017054D01*
X029722Y023554D01*
X030222Y024054D02*
X036222Y017054D01*
X036222Y009054D01*
X035222Y009554D02*
X035222Y017054D01*
X029722Y022554D01*
X029222Y022054D02*
X034722Y017054D01*
X034722Y003554D01*
X031722Y004554D02*
X028722Y004554D01*
X029692Y005084D02*
X028722Y006054D01*
X029692Y005083D02*
X029704Y005073D01*
X029718Y005065D01*
X029732Y005059D01*
X029747Y005055D01*
X029763Y005054D01*
X030222Y005054D01*
X028722Y007554D02*
X032222Y007554D01*
X030722Y009054D02*
X028722Y009054D01*
X028722Y010554D02*
X029222Y010554D01*
X030222Y011554D01*
X028722Y012054D02*
X028722Y012554D01*
X029222Y013054D01*
X031722Y013054D01*
X030722Y015554D02*
X028722Y013554D01*
X027722Y016054D02*
X032222Y016054D01*
X031222Y016554D02*
X031222Y019554D01*
X028722Y021554D01*
X028722Y023054D01*
X028222Y022554D02*
X028222Y031054D01*
X028222Y031554D02*
X028722Y031054D01*
X028222Y031554D02*
X021722Y031554D01*
X021222Y031054D01*
X022222Y031054D02*
X027222Y031054D01*
X027722Y029554D02*
X027722Y028554D01*
X027222Y028054D02*
X026222Y028554D01*
X027222Y028054D02*
X027222Y027054D01*
X027722Y027054D02*
X027722Y023054D01*
X026222Y023554D02*
X026222Y027054D01*
X026722Y027054D02*
X026722Y021554D01*
X025722Y022054D02*
X025722Y029554D01*
X022722Y029554D02*
X018722Y029554D01*
X018722Y030554D01*
X017722Y031554D01*
X010722Y031554D01*
X010722Y031054D02*
X010722Y028554D01*
X012222Y026554D01*
X012222Y020054D01*
X012722Y019554D01*
X025722Y019554D01*
X024722Y021554D02*
X024722Y025054D01*
X023722Y024054D02*
X023722Y021554D01*
X022722Y021554D02*
X022722Y026054D01*
X022222Y027054D02*
X022222Y024054D01*
X021722Y024554D02*
X021722Y027054D01*
X021222Y027054D02*
X021222Y025054D01*
X020722Y025554D02*
X020722Y027054D01*
X020222Y027054D02*
X020222Y026054D01*
X017222Y027054D02*
X017222Y031054D01*
X016722Y030554D02*
X012722Y030554D01*
X009722Y029054D02*
X009722Y027054D01*
X004722Y021554D01*
X005722Y025554D02*
X001222Y025554D01*
X002722Y027554D02*
X004222Y029054D01*
X008722Y029054D01*
X010722Y027054D02*
X010722Y017554D01*
X011222Y017054D02*
X011222Y022054D01*
X011722Y021554D02*
X011722Y018054D01*
X011722Y017054D01*
X011722Y018054D01*
X013222Y016554D02*
X009222Y016554D01*
X010722Y016054D02*
X010722Y014554D01*
X011222Y014054D01*
X012222Y014054D01*
X012222Y012554D02*
X011263Y012554D01*
X011192Y012584D02*
X010222Y013554D01*
X008722Y013554D01*
X010222Y012054D02*
X011222Y011054D01*
X012222Y011054D01*
X012222Y009554D02*
X010722Y009554D01*
X009222Y008054D02*
X012222Y008054D01*
X012222Y006554D02*
X011251Y005584D01*
X011180Y005554D02*
X010222Y005554D01*
X011180Y005554D02*
X011196Y005555D01*
X011211Y005559D01*
X011225Y005565D01*
X011239Y005573D01*
X011251Y005583D01*
X012222Y005054D02*
X008722Y005054D01*
X004722Y004054D02*
X004722Y016554D01*
X009722Y023054D01*
X010222Y023054D01*
X010222Y022554D02*
X009722Y022554D01*
X005222Y016554D01*
X005222Y012054D01*
X003222Y010554D02*
X003222Y016554D01*
X009722Y024554D01*
X010222Y024554D01*
X010222Y025054D02*
X009722Y025054D01*
X002722Y016554D01*
X002722Y011554D01*
X002222Y011054D02*
X002222Y016554D01*
X009722Y025554D01*
X010222Y025554D01*
X010222Y026054D02*
X009722Y026054D01*
X001722Y016554D01*
X001722Y003554D01*
X001222Y003054D02*
X001222Y016554D01*
X009722Y026554D01*
X010222Y026554D01*
X010222Y024054D02*
X009722Y024054D01*
X003722Y016554D01*
X003722Y010054D01*
X004222Y009554D02*
X004222Y016554D01*
X009722Y023554D01*
X010222Y023554D01*
X017722Y021554D02*
X017722Y029054D01*
X018722Y029554D02*
X018722Y023054D01*
X020222Y021554D01*
X021722Y019054D02*
X021722Y017554D01*
X030222Y018054D02*
X030222Y016554D01*
X030722Y028554D02*
X029222Y029054D01*
X009222Y031054D02*
X003222Y031054D01*
X002722Y030554D01*
X011192Y012583D02*
X011204Y012573D01*
X011218Y012565D01*
X011232Y012559D01*
X011247Y012555D01*
X011263Y012554D01*
M02*
