G75*
G70*
%OFA0B0*%
%FSLAX24Y24*%
%IPPOS*%
%LPD*%
%AMOC8*
5,1,8,0,0,1.08239X$1,22.5*
%
%ADD10C,0.0110*%
%ADD11C,0.0060*%
%ADD12C,0.0020*%
D10*
X001277Y001609D02*
X001277Y002200D01*
X001474Y002003D01*
X001670Y002200D01*
X001670Y001609D01*
X001921Y001708D02*
X002020Y001806D01*
X002315Y001806D01*
X002315Y001905D02*
X002315Y001609D01*
X002020Y001609D01*
X001921Y001708D01*
X002020Y002003D02*
X002216Y002003D01*
X002315Y001905D01*
X002566Y001905D02*
X002664Y002003D01*
X002959Y002003D01*
X002959Y001511D01*
X002861Y001413D01*
X002763Y001413D01*
X002664Y001609D02*
X002959Y001609D01*
X003210Y001609D02*
X003210Y002003D01*
X003506Y002003D01*
X003604Y001905D01*
X003604Y001609D01*
X003855Y001708D02*
X003953Y001609D01*
X004150Y001609D01*
X004249Y001806D02*
X003855Y001806D01*
X003855Y001708D02*
X003855Y001905D01*
X003953Y002003D01*
X004150Y002003D01*
X004249Y001905D01*
X004249Y001806D01*
X004499Y002003D02*
X004696Y002003D01*
X004598Y002101D02*
X004598Y001708D01*
X004696Y001609D01*
X004929Y001609D02*
X005126Y001609D01*
X005027Y001609D02*
X005027Y002003D01*
X004929Y002003D01*
X005027Y002200D02*
X005027Y002298D01*
X005359Y001905D02*
X005457Y002003D01*
X005752Y002003D01*
X005359Y001905D02*
X005359Y001708D01*
X005457Y001609D01*
X005752Y001609D01*
X006648Y001708D02*
X006648Y002101D01*
X006746Y002200D01*
X006943Y002200D01*
X007041Y002101D01*
X007292Y001905D02*
X007292Y001708D01*
X007391Y001609D01*
X007588Y001609D01*
X007686Y001708D01*
X007686Y001905D01*
X007588Y002003D01*
X007391Y002003D01*
X007292Y001905D01*
X007041Y001708D02*
X006943Y001609D01*
X006746Y001609D01*
X006648Y001708D01*
X007937Y001806D02*
X008134Y002003D01*
X008232Y002003D01*
X008474Y001905D02*
X008572Y002003D01*
X008769Y002003D01*
X008868Y001905D01*
X008868Y001806D01*
X008474Y001806D01*
X008474Y001708D02*
X008474Y001905D01*
X008474Y001708D02*
X008572Y001609D01*
X008769Y001609D01*
X009763Y001609D02*
X009763Y002200D01*
X010058Y002200D01*
X010157Y002101D01*
X010157Y002003D01*
X010058Y001905D01*
X009763Y001905D01*
X010058Y001905D02*
X010157Y001806D01*
X010157Y001708D01*
X010058Y001609D01*
X009763Y001609D01*
X010408Y001708D02*
X010506Y001609D01*
X010703Y001609D01*
X010801Y001708D01*
X010801Y001905D01*
X010703Y002003D01*
X010506Y002003D01*
X010408Y001905D01*
X010408Y001708D01*
X011052Y001708D02*
X011150Y001806D01*
X011446Y001806D01*
X011446Y001905D02*
X011446Y001609D01*
X011150Y001609D01*
X011052Y001708D01*
X011150Y002003D02*
X011347Y002003D01*
X011446Y001905D01*
X011697Y002003D02*
X011697Y001609D01*
X011697Y001806D02*
X011893Y002003D01*
X011992Y002003D01*
X012234Y001905D02*
X012332Y002003D01*
X012627Y002003D01*
X012627Y002200D02*
X012627Y001609D01*
X012332Y001609D01*
X012234Y001708D01*
X012234Y001905D01*
X013523Y002003D02*
X013720Y001609D01*
X013916Y002003D01*
X014167Y002003D02*
X014364Y002200D01*
X014364Y001609D01*
X014167Y001609D02*
X014561Y001609D01*
X014812Y001609D02*
X014812Y001708D01*
X014910Y001708D01*
X014910Y001609D01*
X014812Y001609D01*
X015134Y001609D02*
X015528Y001609D01*
X015331Y001609D02*
X015331Y002200D01*
X015134Y002003D01*
X007937Y002003D02*
X007937Y001609D01*
X002664Y001609D02*
X002566Y001708D01*
X002566Y001905D01*
X030777Y001905D02*
X031072Y001905D01*
X031170Y001806D01*
X031170Y001708D01*
X031072Y001609D01*
X030777Y001609D01*
X030777Y002200D01*
X031072Y002200D01*
X031170Y002101D01*
X031170Y002003D01*
X031072Y001905D01*
X031421Y001708D02*
X031421Y001609D01*
X031520Y001609D01*
X031520Y001708D01*
X031421Y001708D01*
X031744Y001609D02*
X031744Y002200D01*
X032137Y001609D01*
X032137Y002200D01*
X032388Y001905D02*
X032388Y001708D01*
X032486Y001609D01*
X032683Y001609D01*
X032782Y001708D01*
X032782Y001905D01*
X032683Y002003D01*
X032486Y002003D01*
X032388Y001905D01*
X033033Y002003D02*
X033033Y001609D01*
X033033Y001806D02*
X033229Y002003D01*
X033328Y002003D01*
X033570Y002003D02*
X033766Y002003D01*
X033668Y002101D02*
X033668Y001708D01*
X033766Y001609D01*
X033999Y001609D02*
X033999Y002200D01*
X034098Y002003D02*
X034295Y002003D01*
X034393Y001905D01*
X034393Y001609D01*
X034644Y001413D02*
X034841Y001609D01*
X034742Y001609D01*
X034742Y001708D01*
X034841Y001708D01*
X034841Y001609D01*
X034098Y002003D02*
X033999Y001905D01*
X035718Y002101D02*
X035718Y001708D01*
X035816Y001609D01*
X036013Y001609D01*
X036112Y001708D01*
X036112Y002101D01*
X036013Y002200D01*
X035816Y002200D01*
X035718Y002101D01*
X036363Y001708D02*
X036363Y001609D01*
X036461Y001609D01*
X036461Y001708D01*
X036363Y001708D01*
X036685Y001609D02*
X036685Y002200D01*
X037079Y001609D01*
X037079Y002200D01*
X037428Y002003D02*
X037625Y002003D01*
X037723Y001905D01*
X037723Y001609D01*
X037428Y001609D01*
X037329Y001708D01*
X037428Y001806D01*
X037723Y001806D01*
X037974Y001905D02*
X038072Y002003D01*
X038368Y002003D01*
X038269Y001806D02*
X038072Y001806D01*
X037974Y001905D01*
X037974Y001609D02*
X038269Y001609D01*
X038368Y001708D01*
X038269Y001806D01*
X038618Y001905D02*
X038717Y002003D01*
X038914Y002003D01*
X039012Y001905D01*
X039012Y001609D01*
X038618Y001609D02*
X038618Y002200D01*
D11*
X032472Y006434D02*
X032472Y007674D01*
X032470Y007697D01*
X032465Y007720D01*
X032456Y007742D01*
X032443Y007762D01*
X032428Y007780D01*
X032410Y007795D01*
X032390Y007808D01*
X032368Y007817D01*
X032345Y007822D01*
X032322Y007824D01*
X029122Y007824D01*
X029099Y007822D01*
X029076Y007817D01*
X029054Y007808D01*
X029034Y007795D01*
X029016Y007780D01*
X029001Y007762D01*
X028988Y007742D01*
X028979Y007720D01*
X028974Y007697D01*
X028972Y007674D01*
X028972Y007254D01*
X028972Y006854D01*
X028972Y006434D01*
X028974Y006411D01*
X028979Y006388D01*
X028988Y006366D01*
X029001Y006346D01*
X029016Y006328D01*
X029034Y006313D01*
X029054Y006300D01*
X029076Y006291D01*
X029099Y006286D01*
X029122Y006284D01*
X032322Y006284D01*
X032345Y006286D01*
X032368Y006291D01*
X032390Y006300D01*
X032410Y006313D01*
X032428Y006328D01*
X032443Y006346D01*
X032456Y006366D01*
X032465Y006388D01*
X032470Y006411D01*
X032472Y006434D01*
X028972Y006854D02*
X028999Y006856D01*
X029026Y006861D01*
X029052Y006871D01*
X029076Y006883D01*
X029098Y006899D01*
X029118Y006917D01*
X029135Y006939D01*
X029150Y006962D01*
X029160Y006987D01*
X029168Y007013D01*
X029172Y007040D01*
X029172Y007068D01*
X029168Y007095D01*
X029160Y007121D01*
X029150Y007146D01*
X029135Y007169D01*
X029118Y007191D01*
X029098Y007209D01*
X029076Y007225D01*
X029052Y007237D01*
X029026Y007247D01*
X028999Y007252D01*
X028972Y007254D01*
X022982Y008494D02*
X022982Y008714D01*
X022982Y008494D02*
X022662Y008494D01*
X022982Y009394D02*
X022982Y009614D01*
X022662Y009614D01*
X022662Y010494D02*
X022982Y010494D01*
X022982Y010714D01*
X022982Y011394D02*
X022982Y011614D01*
X022662Y011614D01*
X022662Y012494D02*
X022982Y012494D01*
X022982Y012714D01*
X022982Y013394D02*
X022982Y013614D01*
X022662Y013614D01*
X022662Y014494D02*
X022982Y014494D01*
X022982Y014714D01*
X022982Y015394D02*
X022982Y015614D01*
X022662Y015614D01*
X021722Y015804D02*
X021722Y015304D01*
X021472Y015054D01*
X021722Y014804D01*
X021722Y014304D01*
X021472Y014054D01*
X021722Y013804D01*
X021722Y013304D01*
X021472Y013054D01*
X021722Y012804D01*
X021722Y012304D01*
X021472Y012054D01*
X021722Y011804D01*
X021722Y011304D01*
X021472Y011054D01*
X021722Y010804D01*
X021722Y010304D01*
X021472Y010054D01*
X021722Y009804D01*
X021722Y009304D01*
X021472Y009054D01*
X021722Y008804D01*
X021722Y008304D01*
X021472Y008054D01*
X021722Y007804D01*
X021722Y007304D01*
X021472Y007054D01*
X021722Y006804D01*
X021722Y006304D01*
X021472Y006054D01*
X021722Y005804D01*
X021722Y005304D01*
X021472Y005054D01*
X021722Y004804D01*
X021722Y004304D01*
X021472Y004054D01*
X020972Y004054D01*
X020722Y004304D01*
X020722Y004804D01*
X020972Y005054D01*
X020722Y005304D01*
X020722Y005804D01*
X020972Y006054D01*
X021472Y006054D01*
X020972Y006054D02*
X020722Y006304D01*
X020722Y006804D01*
X020972Y007054D01*
X020722Y007304D01*
X020722Y007804D01*
X020972Y008054D01*
X020722Y008304D01*
X020722Y008804D01*
X020972Y009054D01*
X021472Y009054D01*
X020972Y009054D02*
X020722Y009304D01*
X020722Y009804D01*
X020972Y010054D01*
X020722Y010304D01*
X020722Y010804D01*
X020972Y011054D01*
X020722Y011304D01*
X020722Y011804D01*
X020972Y012054D01*
X021472Y012054D01*
X020972Y012054D02*
X020722Y012304D01*
X020722Y012804D01*
X020972Y013054D01*
X020722Y013304D01*
X020722Y013804D01*
X020972Y014054D01*
X020722Y014304D01*
X020722Y014804D01*
X020972Y015054D01*
X020722Y015304D01*
X020722Y015804D01*
X020972Y016054D01*
X021472Y016054D01*
X021722Y015804D01*
X021472Y015054D02*
X020972Y015054D01*
X019782Y014494D02*
X019462Y014494D01*
X019462Y014714D01*
X019462Y015394D02*
X019462Y015614D01*
X019782Y015614D01*
X020972Y014054D02*
X021472Y014054D01*
X021472Y013054D02*
X020972Y013054D01*
X019782Y012494D02*
X019462Y012494D01*
X019462Y012714D01*
X019462Y013394D02*
X019462Y013614D01*
X019782Y013614D01*
X019782Y011614D02*
X019462Y011614D01*
X019462Y011394D01*
X019462Y010714D02*
X019462Y010494D01*
X019782Y010494D01*
X019782Y009614D02*
X019462Y009614D01*
X019462Y009394D01*
X019462Y008714D02*
X019462Y008494D01*
X019782Y008494D01*
X020972Y008054D02*
X021472Y008054D01*
X021472Y007054D02*
X020972Y007054D01*
X020972Y005054D02*
X021472Y005054D01*
X021472Y002054D02*
X021972Y002054D01*
X022222Y001804D01*
X022222Y001304D01*
X021972Y001054D01*
X021472Y001054D01*
X021222Y001304D01*
X020972Y001054D01*
X020472Y001054D01*
X020222Y001304D01*
X020222Y001804D01*
X020472Y002054D01*
X020972Y002054D01*
X021222Y001804D01*
X021472Y002054D01*
X021222Y001804D02*
X021222Y001304D01*
X020222Y001304D02*
X019972Y001054D01*
X019472Y001054D01*
X019222Y001304D01*
X018972Y001054D01*
X018472Y001054D01*
X018222Y001304D01*
X017972Y001054D01*
X017472Y001054D01*
X017222Y001304D01*
X016972Y001054D01*
X016472Y001054D01*
X016222Y001304D01*
X016222Y001804D01*
X016472Y002054D01*
X016972Y002054D01*
X017222Y001804D01*
X017472Y002054D01*
X017972Y002054D01*
X018222Y001804D01*
X018472Y002054D01*
X018972Y002054D01*
X019222Y001804D01*
X019472Y002054D01*
X019972Y002054D01*
X020222Y001804D01*
X019222Y001804D02*
X019222Y001304D01*
X018222Y001304D02*
X018222Y001804D01*
X017222Y001804D02*
X017222Y001304D01*
X023222Y001304D02*
X023472Y001054D01*
X023972Y001054D01*
X024222Y001304D01*
X024472Y001054D01*
X024972Y001054D01*
X025222Y001304D01*
X025222Y001804D01*
X024972Y002054D01*
X024472Y002054D01*
X024222Y001804D01*
X024222Y001304D01*
X024222Y001804D02*
X023972Y002054D01*
X023472Y002054D01*
X023222Y001804D01*
X023222Y001304D01*
X025222Y001304D02*
X025472Y001054D01*
X025972Y001054D01*
X026222Y001304D01*
X026472Y001054D01*
X026972Y001054D01*
X027222Y001304D01*
X027472Y001054D01*
X027972Y001054D01*
X028222Y001304D01*
X028472Y001054D01*
X028972Y001054D01*
X029222Y001304D01*
X029222Y001804D01*
X028972Y002054D01*
X028472Y002054D01*
X028222Y001804D01*
X028222Y001304D01*
X028222Y001804D02*
X027972Y002054D01*
X027472Y002054D01*
X027222Y001804D01*
X027222Y001304D01*
X027222Y001804D02*
X026972Y002054D01*
X026472Y002054D01*
X026222Y001804D01*
X026222Y001304D01*
X026222Y001804D02*
X025972Y002054D01*
X025472Y002054D01*
X025222Y001804D01*
X021472Y010054D02*
X020972Y010054D01*
X020972Y011054D02*
X021472Y011054D01*
X028972Y012934D02*
X028972Y013354D01*
X028972Y013754D01*
X028972Y014174D01*
X028974Y014197D01*
X028979Y014220D01*
X028988Y014242D01*
X029001Y014262D01*
X029016Y014280D01*
X029034Y014295D01*
X029054Y014308D01*
X029076Y014317D01*
X029099Y014322D01*
X029122Y014324D01*
X032322Y014324D01*
X032345Y014322D01*
X032368Y014317D01*
X032390Y014308D01*
X032410Y014295D01*
X032428Y014280D01*
X032443Y014262D01*
X032456Y014242D01*
X032465Y014220D01*
X032470Y014197D01*
X032472Y014174D01*
X032472Y012934D01*
X032470Y012911D01*
X032465Y012888D01*
X032456Y012866D01*
X032443Y012846D01*
X032428Y012828D01*
X032410Y012813D01*
X032390Y012800D01*
X032368Y012791D01*
X032345Y012786D01*
X032322Y012784D01*
X029122Y012784D01*
X029099Y012786D01*
X029076Y012791D01*
X029054Y012800D01*
X029034Y012813D01*
X029016Y012828D01*
X029001Y012846D01*
X028988Y012866D01*
X028979Y012888D01*
X028974Y012911D01*
X028972Y012934D01*
X028972Y013354D02*
X028999Y013356D01*
X029026Y013361D01*
X029052Y013371D01*
X029076Y013383D01*
X029098Y013399D01*
X029118Y013417D01*
X029135Y013439D01*
X029150Y013462D01*
X029160Y013487D01*
X029168Y013513D01*
X029172Y013540D01*
X029172Y013568D01*
X029168Y013595D01*
X029160Y013621D01*
X029150Y013646D01*
X029135Y013669D01*
X029118Y013691D01*
X029098Y013709D01*
X029076Y013725D01*
X029052Y013737D01*
X029026Y013747D01*
X028999Y013752D01*
X028972Y013754D01*
X028972Y020054D02*
X028472Y020054D01*
X028222Y020304D01*
X027972Y020054D01*
X027472Y020054D01*
X027222Y020304D01*
X027222Y020804D01*
X027472Y021054D01*
X027972Y021054D01*
X028222Y020804D01*
X028472Y021054D01*
X028972Y021054D01*
X029222Y020804D01*
X029222Y020304D01*
X028972Y020054D01*
X028222Y020304D02*
X028222Y020804D01*
X027222Y020804D02*
X026972Y021054D01*
X026472Y021054D01*
X026222Y020804D01*
X025972Y021054D01*
X025472Y021054D01*
X025222Y020804D01*
X024972Y021054D01*
X024472Y021054D01*
X024222Y020804D01*
X024222Y020304D01*
X024472Y020054D01*
X024972Y020054D01*
X025222Y020304D01*
X025222Y020804D01*
X025222Y020304D02*
X025472Y020054D01*
X025972Y020054D01*
X026222Y020304D01*
X026222Y020804D01*
X026222Y020304D02*
X026472Y020054D01*
X026972Y020054D01*
X027222Y020304D01*
X024222Y020304D02*
X023972Y020054D01*
X023472Y020054D01*
X023222Y020304D01*
X022972Y020054D01*
X022472Y020054D01*
X022222Y020304D01*
X021972Y020054D01*
X021472Y020054D01*
X021222Y020304D01*
X021222Y020804D01*
X021472Y021054D01*
X021972Y021054D01*
X022222Y020804D01*
X022472Y021054D01*
X022972Y021054D01*
X023222Y020804D01*
X023472Y021054D01*
X023972Y021054D01*
X024222Y020804D01*
X023222Y020804D02*
X023222Y020304D01*
X022222Y020304D02*
X022222Y020804D01*
X020622Y020804D02*
X020622Y020304D01*
X020372Y020054D01*
X019872Y020054D01*
X019622Y020304D01*
X019372Y020054D01*
X018872Y020054D01*
X018622Y020304D01*
X018622Y020804D01*
X018872Y021054D01*
X019372Y021054D01*
X019622Y020804D01*
X019872Y021054D01*
X020372Y021054D01*
X020622Y020804D01*
X019622Y020804D02*
X019622Y020304D01*
X018622Y020304D02*
X018372Y020054D01*
X017872Y020054D01*
X017622Y020304D01*
X017372Y020054D01*
X016872Y020054D01*
X016622Y020304D01*
X016372Y020054D01*
X015872Y020054D01*
X015622Y020304D01*
X015622Y020804D01*
X015872Y021054D01*
X016372Y021054D01*
X016622Y020804D01*
X016872Y021054D01*
X017372Y021054D01*
X017622Y020804D01*
X017872Y021054D01*
X018372Y021054D01*
X018622Y020804D01*
X017622Y020804D02*
X017622Y020304D01*
X016622Y020304D02*
X016622Y020804D01*
X015622Y020804D02*
X015372Y021054D01*
X014872Y021054D01*
X014622Y020804D01*
X014372Y021054D01*
X013872Y021054D01*
X013622Y020804D01*
X013372Y021054D01*
X012872Y021054D01*
X012622Y020804D01*
X012622Y020304D01*
X012872Y020054D01*
X013372Y020054D01*
X013622Y020304D01*
X013622Y020804D01*
X013622Y020304D02*
X013872Y020054D01*
X014372Y020054D01*
X014622Y020304D01*
X014622Y020804D01*
X014622Y020304D02*
X014872Y020054D01*
X015372Y020054D01*
X015622Y020304D01*
X011822Y014824D02*
X008622Y014824D01*
X008599Y014822D01*
X008576Y014817D01*
X008554Y014808D01*
X008534Y014795D01*
X008516Y014780D01*
X008501Y014762D01*
X008488Y014742D01*
X008479Y014720D01*
X008474Y014697D01*
X008472Y014674D01*
X008472Y013434D01*
X008474Y013411D01*
X008479Y013388D01*
X008488Y013366D01*
X008501Y013346D01*
X008516Y013328D01*
X008534Y013313D01*
X008554Y013300D01*
X008576Y013291D01*
X008599Y013286D01*
X008622Y013284D01*
X011822Y013284D01*
X011845Y013286D01*
X011868Y013291D01*
X011890Y013300D01*
X011910Y013313D01*
X011928Y013328D01*
X011943Y013346D01*
X011956Y013366D01*
X011965Y013388D01*
X011970Y013411D01*
X011972Y013434D01*
X011972Y013854D01*
X011972Y014254D01*
X011972Y014674D01*
X011970Y014697D01*
X011965Y014720D01*
X011956Y014742D01*
X011943Y014762D01*
X011928Y014780D01*
X011910Y014795D01*
X011890Y014808D01*
X011868Y014817D01*
X011845Y014822D01*
X011822Y014824D01*
X011972Y014254D02*
X011945Y014252D01*
X011918Y014247D01*
X011892Y014237D01*
X011868Y014225D01*
X011846Y014209D01*
X011826Y014191D01*
X011809Y014169D01*
X011794Y014146D01*
X011784Y014121D01*
X011776Y014095D01*
X011772Y014068D01*
X011772Y014040D01*
X011776Y014013D01*
X011784Y013987D01*
X011794Y013962D01*
X011809Y013939D01*
X011826Y013917D01*
X011846Y013899D01*
X011868Y013883D01*
X011892Y013871D01*
X011918Y013861D01*
X011945Y013856D01*
X011972Y013854D01*
X011822Y008324D02*
X008622Y008324D01*
X008599Y008322D01*
X008576Y008317D01*
X008554Y008308D01*
X008534Y008295D01*
X008516Y008280D01*
X008501Y008262D01*
X008488Y008242D01*
X008479Y008220D01*
X008474Y008197D01*
X008472Y008174D01*
X008472Y006934D01*
X008474Y006911D01*
X008479Y006888D01*
X008488Y006866D01*
X008501Y006846D01*
X008516Y006828D01*
X008534Y006813D01*
X008554Y006800D01*
X008576Y006791D01*
X008599Y006786D01*
X008622Y006784D01*
X011822Y006784D01*
X011845Y006786D01*
X011868Y006791D01*
X011890Y006800D01*
X011910Y006813D01*
X011928Y006828D01*
X011943Y006846D01*
X011956Y006866D01*
X011965Y006888D01*
X011970Y006911D01*
X011972Y006934D01*
X011972Y007354D01*
X011972Y007754D01*
X011972Y008174D01*
X011970Y008197D01*
X011965Y008220D01*
X011956Y008242D01*
X011943Y008262D01*
X011928Y008280D01*
X011910Y008295D01*
X011890Y008308D01*
X011868Y008317D01*
X011845Y008322D01*
X011822Y008324D01*
X011972Y007754D02*
X011945Y007752D01*
X011918Y007747D01*
X011892Y007737D01*
X011868Y007725D01*
X011846Y007709D01*
X011826Y007691D01*
X011809Y007669D01*
X011794Y007646D01*
X011784Y007621D01*
X011776Y007595D01*
X011772Y007568D01*
X011772Y007540D01*
X011776Y007513D01*
X011784Y007487D01*
X011794Y007462D01*
X011809Y007439D01*
X011826Y007417D01*
X011846Y007399D01*
X011868Y007383D01*
X011892Y007371D01*
X011918Y007361D01*
X011945Y007356D01*
X011972Y007354D01*
X003342Y020804D02*
X002922Y020804D01*
X002522Y020804D01*
X002102Y020804D01*
X002079Y020806D01*
X002056Y020811D01*
X002034Y020820D01*
X002014Y020833D01*
X001996Y020848D01*
X001981Y020866D01*
X001968Y020886D01*
X001959Y020908D01*
X001954Y020931D01*
X001952Y020954D01*
X002522Y020804D02*
X002524Y020831D01*
X002529Y020858D01*
X002539Y020884D01*
X002551Y020908D01*
X002567Y020930D01*
X002585Y020950D01*
X002607Y020967D01*
X002630Y020982D01*
X002655Y020992D01*
X002681Y021000D01*
X002708Y021004D01*
X002736Y021004D01*
X002763Y021000D01*
X002789Y020992D01*
X002814Y020982D01*
X002837Y020967D01*
X002859Y020950D01*
X002877Y020930D01*
X002893Y020908D01*
X002905Y020884D01*
X002915Y020858D01*
X002920Y020831D01*
X002922Y020804D01*
X003342Y020804D02*
X003365Y020806D01*
X003388Y020811D01*
X003410Y020820D01*
X003430Y020833D01*
X003448Y020848D01*
X003463Y020866D01*
X003476Y020886D01*
X003485Y020908D01*
X003490Y020931D01*
X003492Y020954D01*
X003492Y024154D02*
X003490Y024177D01*
X003485Y024200D01*
X003476Y024222D01*
X003463Y024242D01*
X003448Y024260D01*
X003430Y024275D01*
X003410Y024288D01*
X003388Y024297D01*
X003365Y024302D01*
X003342Y024304D01*
X002102Y024304D01*
X002079Y024302D01*
X002056Y024297D01*
X002034Y024288D01*
X002014Y024275D01*
X001996Y024260D01*
X001981Y024242D01*
X001968Y024222D01*
X001959Y024200D01*
X001954Y024177D01*
X001952Y024154D01*
X006222Y026304D02*
X006472Y026054D01*
X006972Y026054D01*
X007222Y026304D01*
X007472Y026054D01*
X007972Y026054D01*
X008222Y026304D01*
X008222Y026804D01*
X007972Y027054D01*
X007472Y027054D01*
X007222Y026804D01*
X007222Y026304D01*
X007222Y026804D02*
X006972Y027054D01*
X006472Y027054D01*
X006222Y026804D01*
X006222Y026304D01*
X004842Y028054D02*
X003602Y028054D01*
X003579Y028056D01*
X003556Y028061D01*
X003534Y028070D01*
X003514Y028083D01*
X003496Y028098D01*
X003481Y028116D01*
X003468Y028136D01*
X003459Y028158D01*
X003454Y028181D01*
X003452Y028204D01*
X003452Y029904D01*
X003454Y029927D01*
X003459Y029950D01*
X003468Y029972D01*
X003481Y029992D01*
X003496Y030010D01*
X003514Y030025D01*
X003534Y030038D01*
X003556Y030047D01*
X003579Y030052D01*
X003602Y030054D01*
X004022Y030054D01*
X004422Y030054D01*
X004842Y030054D01*
X004865Y030052D01*
X004888Y030047D01*
X004910Y030038D01*
X004930Y030025D01*
X004948Y030010D01*
X004963Y029992D01*
X004976Y029972D01*
X004985Y029950D01*
X004990Y029927D01*
X004992Y029904D01*
X004992Y028204D01*
X004990Y028181D01*
X004985Y028158D01*
X004976Y028136D01*
X004963Y028116D01*
X004948Y028098D01*
X004930Y028083D01*
X004910Y028070D01*
X004888Y028061D01*
X004865Y028056D01*
X004842Y028054D01*
X004422Y030054D02*
X004420Y030027D01*
X004415Y030000D01*
X004405Y029974D01*
X004393Y029950D01*
X004377Y029928D01*
X004359Y029908D01*
X004337Y029891D01*
X004314Y029876D01*
X004289Y029866D01*
X004263Y029858D01*
X004236Y029854D01*
X004208Y029854D01*
X004181Y029858D01*
X004155Y029866D01*
X004130Y029876D01*
X004107Y029891D01*
X004085Y029908D01*
X004067Y029928D01*
X004051Y029950D01*
X004039Y029974D01*
X004029Y030000D01*
X004024Y030027D01*
X004022Y030054D01*
X011952Y031654D02*
X011952Y028454D01*
X011954Y028431D01*
X011959Y028408D01*
X011968Y028386D01*
X011981Y028366D01*
X011996Y028348D01*
X012014Y028333D01*
X012034Y028320D01*
X012056Y028311D01*
X012079Y028306D01*
X012102Y028304D01*
X013342Y028304D01*
X013365Y028306D01*
X013388Y028311D01*
X013410Y028320D01*
X013430Y028333D01*
X013448Y028348D01*
X013463Y028366D01*
X013476Y028386D01*
X013485Y028408D01*
X013490Y028431D01*
X013492Y028454D01*
X013492Y031654D01*
X013490Y031677D01*
X013485Y031700D01*
X013476Y031722D01*
X013463Y031742D01*
X013448Y031760D01*
X013430Y031775D01*
X013410Y031788D01*
X013388Y031797D01*
X013365Y031802D01*
X013342Y031804D01*
X012922Y031804D01*
X012522Y031804D01*
X012102Y031804D01*
X012079Y031802D01*
X012056Y031797D01*
X012034Y031788D01*
X012014Y031775D01*
X011996Y031760D01*
X011981Y031742D01*
X011968Y031722D01*
X011959Y031700D01*
X011954Y031677D01*
X011952Y031654D01*
X012522Y031804D02*
X012524Y031777D01*
X012529Y031750D01*
X012539Y031724D01*
X012551Y031700D01*
X012567Y031678D01*
X012585Y031658D01*
X012607Y031641D01*
X012630Y031626D01*
X012655Y031616D01*
X012681Y031608D01*
X012708Y031604D01*
X012736Y031604D01*
X012763Y031608D01*
X012789Y031616D01*
X012814Y031626D01*
X012837Y031641D01*
X012859Y031658D01*
X012877Y031678D01*
X012893Y031700D01*
X012905Y031724D01*
X012915Y031750D01*
X012920Y031777D01*
X012922Y031804D01*
X019472Y029674D02*
X019472Y028434D01*
X019474Y028411D01*
X019479Y028388D01*
X019488Y028366D01*
X019501Y028346D01*
X019516Y028328D01*
X019534Y028313D01*
X019554Y028300D01*
X019576Y028291D01*
X019599Y028286D01*
X019622Y028284D01*
X022822Y028284D01*
X022845Y028286D01*
X022868Y028291D01*
X022890Y028300D01*
X022910Y028313D01*
X022928Y028328D01*
X022943Y028346D01*
X022956Y028366D01*
X022965Y028388D01*
X022970Y028411D01*
X022972Y028434D01*
X022972Y028854D01*
X022972Y029254D01*
X022972Y029674D01*
X022970Y029697D01*
X022965Y029720D01*
X022956Y029742D01*
X022943Y029762D01*
X022928Y029780D01*
X022910Y029795D01*
X022890Y029808D01*
X022868Y029817D01*
X022845Y029822D01*
X022822Y029824D01*
X019622Y029824D01*
X019599Y029822D01*
X019576Y029817D01*
X019554Y029808D01*
X019534Y029795D01*
X019516Y029780D01*
X019501Y029762D01*
X019488Y029742D01*
X019479Y029720D01*
X019474Y029697D01*
X019472Y029674D01*
X022972Y029254D02*
X022945Y029252D01*
X022918Y029247D01*
X022892Y029237D01*
X022868Y029225D01*
X022846Y029209D01*
X022826Y029191D01*
X022809Y029169D01*
X022794Y029146D01*
X022784Y029121D01*
X022776Y029095D01*
X022772Y029068D01*
X022772Y029040D01*
X022776Y029013D01*
X022784Y028987D01*
X022794Y028962D01*
X022809Y028939D01*
X022826Y028917D01*
X022846Y028899D01*
X022868Y028883D01*
X022892Y028871D01*
X022918Y028861D01*
X022945Y028856D01*
X022972Y028854D01*
X025972Y028434D02*
X025972Y029674D01*
X025974Y029697D01*
X025979Y029720D01*
X025988Y029742D01*
X026001Y029762D01*
X026016Y029780D01*
X026034Y029795D01*
X026054Y029808D01*
X026076Y029817D01*
X026099Y029822D01*
X026122Y029824D01*
X029322Y029824D01*
X029345Y029822D01*
X029368Y029817D01*
X029390Y029808D01*
X029410Y029795D01*
X029428Y029780D01*
X029443Y029762D01*
X029456Y029742D01*
X029465Y029720D01*
X029470Y029697D01*
X029472Y029674D01*
X029472Y029254D01*
X029472Y028854D01*
X029472Y028434D01*
X029470Y028411D01*
X029465Y028388D01*
X029456Y028366D01*
X029443Y028346D01*
X029428Y028328D01*
X029410Y028313D01*
X029390Y028300D01*
X029368Y028291D01*
X029345Y028286D01*
X029322Y028284D01*
X026122Y028284D01*
X026099Y028286D01*
X026076Y028291D01*
X026054Y028300D01*
X026034Y028313D01*
X026016Y028328D01*
X026001Y028346D01*
X025988Y028366D01*
X025979Y028388D01*
X025974Y028411D01*
X025972Y028434D01*
X029472Y028854D02*
X029445Y028856D01*
X029418Y028861D01*
X029392Y028871D01*
X029368Y028883D01*
X029346Y028899D01*
X029326Y028917D01*
X029309Y028939D01*
X029294Y028962D01*
X029284Y028987D01*
X029276Y029013D01*
X029272Y029040D01*
X029272Y029068D01*
X029276Y029095D01*
X029284Y029121D01*
X029294Y029146D01*
X029309Y029169D01*
X029326Y029191D01*
X029346Y029209D01*
X029368Y029225D01*
X029392Y029237D01*
X029418Y029247D01*
X029445Y029252D01*
X029472Y029254D01*
X034952Y029404D02*
X034952Y025704D01*
X034954Y025681D01*
X034959Y025658D01*
X034968Y025636D01*
X034981Y025616D01*
X034996Y025598D01*
X035014Y025583D01*
X035034Y025570D01*
X035056Y025561D01*
X035079Y025556D01*
X035102Y025554D01*
X036342Y025554D01*
X036365Y025556D01*
X036388Y025561D01*
X036410Y025570D01*
X036430Y025583D01*
X036448Y025598D01*
X036463Y025616D01*
X036476Y025636D01*
X036485Y025658D01*
X036490Y025681D01*
X036492Y025704D01*
X036492Y029404D01*
X036490Y029427D01*
X036485Y029450D01*
X036476Y029472D01*
X036463Y029492D01*
X036448Y029510D01*
X036430Y029525D01*
X036410Y029538D01*
X036388Y029547D01*
X036365Y029552D01*
X036342Y029554D01*
X035922Y029554D01*
X035522Y029554D01*
X035102Y029554D01*
X035079Y029552D01*
X035056Y029547D01*
X035034Y029538D01*
X035014Y029525D01*
X034996Y029510D01*
X034981Y029492D01*
X034968Y029472D01*
X034959Y029450D01*
X034954Y029427D01*
X034952Y029404D01*
X035522Y029554D02*
X035524Y029527D01*
X035529Y029500D01*
X035539Y029474D01*
X035551Y029450D01*
X035567Y029428D01*
X035585Y029408D01*
X035607Y029391D01*
X035630Y029376D01*
X035655Y029366D01*
X035681Y029358D01*
X035708Y029354D01*
X035736Y029354D01*
X035763Y029358D01*
X035789Y029366D01*
X035814Y029376D01*
X035837Y029391D01*
X035859Y029408D01*
X035877Y029428D01*
X035893Y029450D01*
X035905Y029474D01*
X035915Y029500D01*
X035920Y029527D01*
X035922Y029554D01*
D12*
X035092Y029554D02*
X035092Y025554D01*
X029472Y029684D02*
X025972Y029684D01*
X022972Y029684D02*
X019472Y029684D01*
X012092Y028304D02*
X012092Y031804D01*
X003592Y030054D02*
X003592Y028054D01*
X003352Y024304D02*
X003352Y020804D01*
X008472Y014684D02*
X011972Y014684D01*
X011972Y008184D02*
X008472Y008184D01*
X028972Y006424D02*
X032472Y006424D01*
X032472Y012924D02*
X028972Y012924D01*
M02*
