G75*
G70*
%OFA0B0*%
%FSLAX24Y24*%
%IPPOS*%
%LPD*%
%AMOC8*
5,1,8,0,0,1.08239X$1,22.5*
%
%ADD10C,0.0000*%
%ADD11R,0.0800X0.0260*%
%ADD12R,0.0710X0.0630*%
%ADD13R,0.0630X0.0710*%
%ADD14R,0.0551X0.0394*%
%ADD15R,0.0630X0.0709*%
%ADD16R,0.0260X0.0800*%
%ADD17R,0.0709X0.0630*%
%ADD18C,0.0640*%
%ADD19C,0.0100*%
%ADD20C,0.0240*%
%ADD21C,0.0400*%
D10*
X000222Y000554D02*
X000222Y032050D01*
X039592Y032050D01*
X039592Y000554D01*
X000222Y000554D01*
D11*
X001512Y021054D03*
X001512Y021554D03*
X001512Y022054D03*
X001512Y022554D03*
X001512Y023054D03*
X001512Y023554D03*
X001512Y024054D03*
X003932Y024054D03*
X003932Y023554D03*
X003932Y023054D03*
X003932Y022554D03*
X003932Y022054D03*
X003932Y021554D03*
X003932Y021054D03*
X003012Y028304D03*
X003012Y028804D03*
X003012Y029304D03*
X003012Y029804D03*
X005432Y029804D03*
X005432Y029304D03*
X005432Y028804D03*
X005432Y028304D03*
X011512Y028554D03*
X011512Y029054D03*
X011512Y029554D03*
X011512Y030054D03*
X011512Y030554D03*
X011512Y031054D03*
X011512Y031554D03*
X013932Y031554D03*
X013932Y031054D03*
X013932Y030554D03*
X013932Y030054D03*
X013932Y029554D03*
X013932Y029054D03*
X013932Y028554D03*
X034512Y028304D03*
X034512Y027804D03*
X034512Y027304D03*
X034512Y026804D03*
X034512Y026304D03*
X034512Y025804D03*
X036932Y025804D03*
X036932Y026304D03*
X036932Y026804D03*
X036932Y027304D03*
X036932Y027804D03*
X036932Y028304D03*
X036932Y028804D03*
X036932Y029304D03*
X034512Y029304D03*
X034512Y028804D03*
D12*
X038222Y028494D03*
X038222Y029614D03*
X007722Y030114D03*
X006722Y030614D03*
X006722Y029494D03*
X007722Y028994D03*
X001222Y029494D03*
X001222Y030614D03*
X001222Y028114D03*
X001222Y026994D03*
D13*
X002662Y026554D03*
X003782Y026554D03*
X004662Y026554D03*
X005782Y026554D03*
X006662Y028054D03*
X007782Y028054D03*
X004782Y030554D03*
X003662Y030554D03*
X013162Y015554D03*
X014282Y015554D03*
X014282Y014054D03*
X013162Y014054D03*
X013162Y012554D03*
X014282Y012554D03*
X014282Y011054D03*
X013162Y011054D03*
X013162Y009554D03*
X014282Y009554D03*
X014282Y008054D03*
X013162Y008054D03*
X013162Y006554D03*
X014282Y006554D03*
X014282Y005054D03*
X013162Y005054D03*
X026662Y005554D03*
X027782Y005554D03*
X027782Y004054D03*
X026662Y004054D03*
X026662Y007054D03*
X027782Y007054D03*
X027782Y008554D03*
X026662Y008554D03*
X026662Y010054D03*
X027782Y010054D03*
X027782Y011554D03*
X026662Y011554D03*
X026662Y013054D03*
X027782Y013054D03*
X027782Y015054D03*
X026662Y015054D03*
X034162Y023554D03*
X035282Y023554D03*
D14*
X025155Y015428D03*
X024289Y015054D03*
X025155Y014680D03*
X025155Y013928D03*
X025155Y013180D03*
X025155Y012428D03*
X024289Y012054D03*
X025155Y011680D03*
X025155Y010928D03*
X025155Y010180D03*
X024289Y010554D03*
X023155Y011054D03*
X022289Y010680D03*
X022289Y011428D03*
X022289Y012680D03*
X023155Y013054D03*
X022289Y013428D03*
X022289Y014680D03*
X023155Y015054D03*
X022289Y015428D03*
X020155Y015428D03*
X019289Y015054D03*
X020155Y014680D03*
X020155Y013428D03*
X019289Y013054D03*
X020155Y012680D03*
X020155Y011428D03*
X020155Y010680D03*
X019289Y011054D03*
X020155Y009428D03*
X020155Y008680D03*
X019289Y009054D03*
X022289Y008680D03*
X022289Y009428D03*
X023155Y009054D03*
X024289Y009054D03*
X025155Y008680D03*
X025155Y009428D03*
X025155Y007928D03*
X024289Y007554D03*
X025155Y007180D03*
X025155Y006428D03*
X025155Y005680D03*
X025155Y004928D03*
X024289Y004554D03*
X025155Y004180D03*
X024289Y006054D03*
X016155Y006054D03*
X015289Y005680D03*
X015289Y006428D03*
X015289Y007180D03*
X016155Y007554D03*
X015289Y007928D03*
X015289Y008680D03*
X015289Y009428D03*
X016155Y009054D03*
X015289Y010180D03*
X015289Y010928D03*
X015289Y011680D03*
X016155Y012054D03*
X015289Y012428D03*
X015289Y013180D03*
X015289Y013928D03*
X015289Y014680D03*
X016155Y015054D03*
X015289Y015428D03*
X016155Y013554D03*
X016155Y010554D03*
X015289Y004928D03*
X016155Y004554D03*
X015289Y004180D03*
X024289Y013554D03*
D15*
X019773Y003054D03*
X018671Y003054D03*
X003273Y020054D03*
X002171Y020054D03*
X003671Y027554D03*
X004773Y027554D03*
X035171Y030054D03*
X036273Y030054D03*
X037171Y024554D03*
X038273Y024554D03*
D16*
X029222Y027844D03*
X028722Y027844D03*
X028222Y027844D03*
X027722Y027844D03*
X027222Y027844D03*
X026722Y027844D03*
X026222Y027844D03*
X026222Y030264D03*
X026722Y030264D03*
X027222Y030264D03*
X027722Y030264D03*
X028222Y030264D03*
X028722Y030264D03*
X029222Y030264D03*
X022722Y030264D03*
X022222Y030264D03*
X021722Y030264D03*
X021222Y030264D03*
X020722Y030264D03*
X020222Y030264D03*
X019722Y030264D03*
X019722Y027844D03*
X020222Y027844D03*
X020722Y027844D03*
X021222Y027844D03*
X021722Y027844D03*
X022222Y027844D03*
X022722Y027844D03*
X011722Y015264D03*
X011222Y015264D03*
X010722Y015264D03*
X010222Y015264D03*
X009722Y015264D03*
X009222Y015264D03*
X008722Y015264D03*
X008722Y012844D03*
X009222Y012844D03*
X009722Y012844D03*
X010222Y012844D03*
X010722Y012844D03*
X011222Y012844D03*
X011722Y012844D03*
X011722Y008764D03*
X011222Y008764D03*
X010722Y008764D03*
X010222Y008764D03*
X009722Y008764D03*
X009222Y008764D03*
X008722Y008764D03*
X008722Y006344D03*
X009222Y006344D03*
X009722Y006344D03*
X010222Y006344D03*
X010722Y006344D03*
X011222Y006344D03*
X011722Y006344D03*
X029222Y005844D03*
X029722Y005844D03*
X030222Y005844D03*
X030722Y005844D03*
X031222Y005844D03*
X031722Y005844D03*
X032222Y005844D03*
X032222Y008264D03*
X031722Y008264D03*
X031222Y008264D03*
X030722Y008264D03*
X030222Y008264D03*
X029722Y008264D03*
X029222Y008264D03*
X029222Y012344D03*
X029722Y012344D03*
X030222Y012344D03*
X030722Y012344D03*
X031222Y012344D03*
X031722Y012344D03*
X032222Y012344D03*
X032222Y014764D03*
X031722Y014764D03*
X031222Y014764D03*
X030722Y014764D03*
X030222Y014764D03*
X029722Y014764D03*
X029222Y014764D03*
D17*
X033222Y013606D03*
X033222Y012503D03*
X033222Y007106D03*
X033222Y006003D03*
X007722Y007503D03*
X007722Y008606D03*
X007722Y014003D03*
X007722Y015106D03*
X018722Y028503D03*
X018722Y029606D03*
X015222Y030003D03*
X015222Y031106D03*
X030222Y031106D03*
X030222Y030003D03*
D18*
X028722Y020874D02*
X028722Y020234D01*
X027722Y020234D02*
X027722Y020874D01*
X026722Y020874D02*
X026722Y020234D01*
X025722Y020234D02*
X025722Y020874D01*
X024722Y020874D02*
X024722Y020234D01*
X023722Y020234D02*
X023722Y020874D01*
X022722Y020874D02*
X022722Y020234D01*
X021722Y020234D02*
X021722Y020874D01*
X020122Y020874D02*
X020122Y020234D01*
X019122Y020234D02*
X019122Y020874D01*
X018122Y020874D02*
X018122Y020234D01*
X017122Y020234D02*
X017122Y020874D01*
X016122Y020874D02*
X016122Y020234D01*
X015122Y020234D02*
X015122Y020874D01*
X014122Y020874D02*
X014122Y020234D01*
X013122Y020234D02*
X013122Y020874D01*
X007722Y026234D02*
X007722Y026874D01*
X006722Y026874D02*
X006722Y026234D01*
X020902Y015554D02*
X021542Y015554D01*
X021542Y014554D02*
X020902Y014554D01*
X020902Y013554D02*
X021542Y013554D01*
X021542Y012554D02*
X020902Y012554D01*
X020902Y011554D02*
X021542Y011554D01*
X021542Y010554D02*
X020902Y010554D01*
X020902Y009554D02*
X021542Y009554D01*
X021542Y008554D02*
X020902Y008554D01*
X020902Y007554D02*
X021542Y007554D01*
X021542Y006554D02*
X020902Y006554D01*
X020902Y005554D02*
X021542Y005554D01*
X021542Y004554D02*
X020902Y004554D01*
X020722Y001874D02*
X020722Y001234D01*
X021722Y001234D02*
X021722Y001874D01*
X023722Y001874D02*
X023722Y001234D01*
X024722Y001234D02*
X024722Y001874D01*
X025722Y001874D02*
X025722Y001234D01*
X026722Y001234D02*
X026722Y001874D01*
X027722Y001874D02*
X027722Y001234D01*
X028722Y001234D02*
X028722Y001874D01*
X019722Y001874D02*
X019722Y001234D01*
X018722Y001234D02*
X018722Y001874D01*
X017722Y001874D02*
X017722Y001234D01*
X016722Y001234D02*
X016722Y001874D01*
D19*
X018671Y001554D02*
X018722Y001554D01*
X019722Y001554D02*
X019773Y001554D01*
X015289Y004928D02*
X014408Y004928D01*
X014282Y005054D01*
X013722Y005554D02*
X013722Y005680D01*
X013162Y005054D02*
X012222Y005054D01*
X011222Y006344D02*
X011222Y003554D01*
X010722Y003054D01*
X001222Y003054D01*
X001722Y003554D02*
X009222Y003554D01*
X009722Y004054D01*
X009722Y006344D01*
X010222Y006344D02*
X010222Y005554D01*
X010722Y006344D02*
X010722Y006954D01*
X010720Y006971D01*
X010716Y006988D01*
X010709Y007004D01*
X010699Y007018D01*
X010686Y007031D01*
X010672Y007041D01*
X010656Y007048D01*
X010639Y007052D01*
X010622Y007054D01*
X009322Y007054D01*
X009305Y007052D01*
X009288Y007048D01*
X009272Y007041D01*
X009258Y007031D01*
X009245Y007018D01*
X009235Y007004D01*
X009228Y006988D01*
X009224Y006971D01*
X009222Y006954D01*
X009222Y006344D01*
X009222Y004554D01*
X008722Y004054D01*
X004722Y004054D01*
X008722Y005054D02*
X008722Y006344D01*
X007722Y007503D02*
X007722Y007554D01*
X007722Y008606D02*
X007722Y008764D01*
X006722Y008606D02*
X006722Y008554D01*
X004222Y009554D02*
X009222Y009554D01*
X009722Y009054D01*
X009722Y008764D01*
X009722Y008154D01*
X009724Y008137D01*
X009728Y008120D01*
X009735Y008104D01*
X009745Y008090D01*
X009758Y008077D01*
X009772Y008067D01*
X009788Y008060D01*
X009805Y008056D01*
X009822Y008054D01*
X011122Y008054D01*
X011139Y008056D01*
X011156Y008060D01*
X011172Y008067D01*
X011186Y008077D01*
X011199Y008090D01*
X011209Y008104D01*
X011216Y008120D01*
X011220Y008137D01*
X011222Y008154D01*
X011222Y008764D01*
X011722Y008764D02*
X011722Y010054D01*
X011222Y010554D01*
X003222Y010554D01*
X003722Y010054D02*
X009722Y010054D01*
X010222Y009554D01*
X010222Y008764D01*
X010722Y008764D02*
X010722Y009554D01*
X012222Y009554D02*
X013162Y009554D01*
X013722Y010054D02*
X013722Y010180D01*
X014282Y009554D02*
X014408Y009428D01*
X015289Y009428D01*
X015289Y007928D02*
X014408Y007928D01*
X014282Y008054D01*
X013722Y008554D02*
X013722Y008680D01*
X013162Y008054D02*
X012222Y008054D01*
X012222Y006554D02*
X013162Y006554D01*
X013722Y007054D02*
X013722Y007180D01*
X014282Y006554D02*
X014408Y006428D01*
X015289Y006428D01*
X015289Y010928D02*
X014408Y010928D01*
X014282Y011054D01*
X013722Y011554D02*
X013722Y011680D01*
X013162Y011054D02*
X012222Y011054D01*
X012162Y011054D01*
X011222Y011554D02*
X010722Y011054D01*
X002222Y011054D01*
X002722Y011554D02*
X009222Y011554D01*
X009722Y012054D01*
X009722Y012844D01*
X010222Y012844D02*
X010222Y012054D01*
X009222Y012554D02*
X009222Y012844D01*
X009222Y013454D01*
X009224Y013471D01*
X009228Y013488D01*
X009235Y013504D01*
X009245Y013518D01*
X009258Y013531D01*
X009272Y013541D01*
X009288Y013548D01*
X009305Y013552D01*
X009322Y013554D01*
X010622Y013554D01*
X010639Y013552D01*
X010656Y013548D01*
X010672Y013541D01*
X010686Y013531D01*
X010699Y013518D01*
X010709Y013504D01*
X010716Y013488D01*
X010720Y013471D01*
X010722Y013454D01*
X010722Y012844D01*
X011222Y012844D02*
X011222Y011554D01*
X012222Y012554D02*
X013162Y012554D01*
X013722Y013054D02*
X013722Y013180D01*
X014282Y012554D02*
X014408Y012428D01*
X015289Y012428D01*
X015289Y013928D02*
X014408Y013928D01*
X014282Y014054D01*
X013722Y014554D02*
X013722Y014680D01*
X013162Y014054D02*
X012222Y014054D01*
X011222Y014654D02*
X011222Y015264D01*
X011222Y017054D01*
X011722Y017054D02*
X011722Y015264D01*
X011222Y014654D02*
X011220Y014637D01*
X011216Y014620D01*
X011209Y014604D01*
X011199Y014590D01*
X011186Y014577D01*
X011172Y014567D01*
X011156Y014560D01*
X011139Y014556D01*
X011122Y014554D01*
X009822Y014554D01*
X009805Y014556D01*
X009788Y014560D01*
X009772Y014567D01*
X009758Y014577D01*
X009745Y014590D01*
X009735Y014604D01*
X009728Y014620D01*
X009724Y014637D01*
X009722Y014654D01*
X009722Y015264D01*
X010222Y015264D02*
X010222Y017054D01*
X010722Y017554D01*
X021722Y017554D01*
X031222Y017554D01*
X031722Y017054D01*
X031722Y014764D01*
X031222Y014764D02*
X031222Y016554D01*
X030222Y016554D02*
X030222Y014764D01*
X030722Y014764D02*
X030722Y015554D01*
X031222Y014764D02*
X031222Y014154D01*
X031220Y014137D01*
X031216Y014120D01*
X031209Y014104D01*
X031199Y014090D01*
X031186Y014077D01*
X031172Y014067D01*
X031156Y014060D01*
X031139Y014056D01*
X031122Y014054D01*
X029822Y014054D01*
X029805Y014056D01*
X029788Y014060D01*
X029772Y014067D01*
X029758Y014077D01*
X029745Y014090D01*
X029735Y014104D01*
X029728Y014120D01*
X029724Y014137D01*
X029722Y014154D01*
X029722Y014764D01*
X029722Y013554D02*
X033222Y013554D01*
X033222Y013606D01*
X033222Y012554D02*
X033222Y012344D01*
X033222Y012503D01*
X031722Y012344D02*
X031722Y013054D01*
X031222Y012344D02*
X031222Y012054D01*
X031722Y011554D01*
X037222Y011554D01*
X037722Y010554D02*
X030222Y010554D01*
X029722Y011054D01*
X029722Y012344D01*
X029222Y012344D02*
X029222Y012954D01*
X029224Y012971D01*
X029228Y012988D01*
X029235Y013004D01*
X029245Y013018D01*
X029258Y013031D01*
X029272Y013041D01*
X029288Y013048D01*
X029305Y013052D01*
X029322Y013054D01*
X030622Y013054D01*
X030639Y013052D01*
X030656Y013048D01*
X030672Y013041D01*
X030686Y013031D01*
X030699Y013018D01*
X030709Y013004D01*
X030716Y012988D01*
X030720Y012971D01*
X030722Y012954D01*
X030722Y012344D01*
X030722Y011554D01*
X031222Y011054D01*
X035722Y011054D01*
X036722Y010054D02*
X030722Y010054D01*
X030222Y009554D01*
X030222Y008264D01*
X030722Y008264D02*
X030722Y009054D01*
X031222Y009054D02*
X031222Y008264D01*
X031222Y007654D01*
X031220Y007637D01*
X031216Y007620D01*
X031209Y007604D01*
X031199Y007590D01*
X031186Y007577D01*
X031172Y007567D01*
X031156Y007560D01*
X031139Y007556D01*
X031122Y007554D01*
X029822Y007554D01*
X029805Y007556D01*
X029788Y007560D01*
X029772Y007567D01*
X029758Y007577D01*
X029745Y007590D01*
X029735Y007604D01*
X029728Y007620D01*
X029724Y007637D01*
X029722Y007654D01*
X029722Y008264D01*
X029222Y008264D02*
X029222Y008554D01*
X028722Y009054D02*
X027782Y008554D01*
X026662Y008554D02*
X026536Y008680D01*
X025155Y008680D01*
X026536Y010180D02*
X026662Y010054D01*
X026536Y010180D02*
X025155Y010180D01*
X025155Y011680D02*
X026536Y011680D01*
X026662Y011554D01*
X027782Y011554D02*
X028722Y012054D01*
X027782Y013054D02*
X028722Y013554D01*
X030222Y012344D02*
X030222Y011554D01*
X028722Y010554D02*
X027782Y010054D01*
X028722Y007554D02*
X027782Y007054D01*
X026662Y007054D02*
X026536Y007180D01*
X025155Y007180D01*
X025155Y005680D02*
X026536Y005680D01*
X026662Y005554D01*
X027782Y005554D02*
X027841Y005614D01*
X028722Y006114D01*
X028722Y006054D01*
X029222Y005844D02*
X029222Y006454D01*
X029224Y006471D01*
X029228Y006488D01*
X029235Y006504D01*
X029245Y006518D01*
X029258Y006531D01*
X029272Y006541D01*
X029288Y006548D01*
X029305Y006552D01*
X029322Y006554D01*
X030622Y006554D01*
X030639Y006552D01*
X030656Y006548D01*
X030672Y006541D01*
X030686Y006531D01*
X030699Y006518D01*
X030709Y006504D01*
X030716Y006488D01*
X030720Y006471D01*
X030722Y006454D01*
X030722Y005844D01*
X030722Y004054D01*
X031222Y003554D01*
X034722Y003554D01*
X033222Y005844D02*
X033222Y006003D01*
X034222Y006003D02*
X034222Y006054D01*
X033222Y007054D02*
X033222Y007106D01*
X032222Y007554D02*
X032222Y008264D01*
X031722Y008264D02*
X031722Y008554D01*
X032222Y009054D01*
X036222Y009054D01*
X035222Y009554D02*
X031722Y009554D01*
X031222Y009054D01*
X031222Y005844D02*
X031222Y004554D01*
X031722Y004054D01*
X038222Y004054D01*
X038722Y003054D02*
X030722Y003054D01*
X029722Y004054D01*
X029722Y005844D01*
X030222Y005844D02*
X030222Y005054D01*
X031722Y004554D02*
X031722Y005844D01*
X028722Y004554D02*
X027782Y004054D01*
X026662Y004054D02*
X026536Y004180D01*
X025155Y004180D01*
X026662Y013054D02*
X026536Y013180D01*
X025155Y013180D01*
X025155Y014680D02*
X026288Y014680D01*
X026662Y015054D01*
X027722Y015054D02*
X027722Y016054D01*
X027722Y015054D02*
X027782Y015054D01*
X030222Y018054D02*
X011722Y018054D01*
X012192Y018584D02*
X008222Y022054D01*
X003932Y022054D01*
X003932Y021554D02*
X004722Y021554D01*
X003932Y023054D02*
X008222Y023054D01*
X012722Y019054D01*
X017722Y019054D01*
X019122Y020554D01*
X019222Y020554D01*
X020122Y020554D02*
X020222Y020554D01*
X020222Y021554D01*
X021722Y020554D02*
X021722Y019054D01*
X022722Y020554D02*
X022722Y021554D01*
X023722Y021554D02*
X023722Y020554D01*
X024722Y020554D02*
X024722Y021554D01*
X025722Y022054D02*
X029222Y022054D01*
X029722Y022554D02*
X028222Y022554D01*
X010222Y022554D01*
X010222Y023054D02*
X027722Y023054D01*
X028722Y023054D01*
X029722Y023554D02*
X026222Y023554D01*
X010222Y023554D01*
X010222Y024054D02*
X022222Y024054D01*
X023722Y024054D01*
X030222Y024054D01*
X030722Y024554D02*
X021722Y024554D01*
X010222Y024554D01*
X010222Y025054D02*
X021222Y025054D01*
X024722Y025054D01*
X031222Y025054D01*
X031722Y025554D02*
X020722Y025554D01*
X010222Y025554D01*
X010222Y026054D02*
X020222Y026054D01*
X022722Y026054D01*
X032222Y026054D01*
X032722Y026554D02*
X019722Y026554D01*
X010222Y026554D01*
X010722Y027054D02*
X017222Y027054D01*
X018671Y028554D02*
X018722Y028503D01*
X018722Y028554D01*
X017722Y029054D02*
X019722Y029054D01*
X020222Y029554D01*
X020222Y030264D01*
X020722Y030264D02*
X020722Y030554D01*
X020222Y031054D01*
X017222Y031054D01*
X016722Y031054D02*
X017222Y031554D01*
X021222Y031554D01*
X021722Y031054D01*
X021722Y030054D01*
X021722Y029554D01*
X023222Y028554D01*
X026222Y028554D01*
X026722Y028454D02*
X026722Y027844D01*
X026722Y027054D01*
X027222Y027054D02*
X027222Y027844D01*
X027722Y027844D02*
X027722Y027054D01*
X028222Y027844D02*
X028222Y028454D01*
X028220Y028471D01*
X028216Y028488D01*
X028209Y028504D01*
X028199Y028518D01*
X028186Y028531D01*
X028172Y028541D01*
X028156Y028548D01*
X028139Y028552D01*
X028122Y028554D01*
X027722Y028554D01*
X026822Y028554D01*
X026805Y028552D01*
X026788Y028548D01*
X026772Y028541D01*
X026758Y028531D01*
X026745Y028518D01*
X026735Y028504D01*
X026728Y028488D01*
X026724Y028471D01*
X026722Y028454D01*
X026222Y027844D02*
X026222Y027054D01*
X024722Y029054D02*
X028222Y029054D01*
X028722Y028554D01*
X028722Y027844D01*
X029222Y029054D02*
X029222Y029554D01*
X027722Y029554D01*
X027722Y030264D01*
X027222Y030264D02*
X027222Y031054D01*
X026722Y030264D02*
X026722Y029654D01*
X026720Y029637D01*
X026716Y029620D01*
X026709Y029604D01*
X026699Y029590D01*
X026686Y029577D01*
X026672Y029567D01*
X026656Y029560D01*
X026639Y029556D01*
X026622Y029554D01*
X025722Y029554D01*
X024722Y029054D02*
X022722Y030264D01*
X022722Y029554D01*
X022222Y030264D02*
X022222Y031054D01*
X021222Y031054D02*
X021222Y030264D01*
X021722Y030264D02*
X021722Y030054D01*
X021722Y027844D02*
X021722Y027054D01*
X022222Y027054D02*
X022222Y027844D01*
X021222Y027844D02*
X021222Y027054D01*
X020722Y027054D02*
X020722Y027844D01*
X020222Y027844D02*
X020222Y027054D01*
X019722Y026554D02*
X019722Y027844D01*
X018722Y029554D02*
X018722Y029606D01*
X016722Y030554D02*
X016722Y031054D01*
X012722Y030554D02*
X011512Y030554D01*
X011512Y030054D02*
X010222Y030054D01*
X009222Y031054D01*
X010722Y031054D02*
X011512Y031054D01*
X011512Y031554D02*
X010722Y031554D01*
X011512Y029554D02*
X006782Y029554D01*
X006722Y029494D01*
X006722Y029304D01*
X005432Y029304D01*
X005432Y028804D02*
X006722Y028804D01*
X006662Y028804D01*
X006662Y028054D01*
X005782Y028304D02*
X005782Y026554D01*
X005782Y025554D01*
X005722Y025554D01*
X005782Y026554D02*
X006722Y026554D01*
X007722Y026554D02*
X007722Y028054D01*
X008722Y029054D01*
X007722Y029054D02*
X007722Y028994D01*
X007722Y028804D01*
X006722Y028804D01*
X005782Y028304D02*
X005432Y028304D01*
X003782Y027554D02*
X003671Y027554D01*
X003671Y027646D01*
X002722Y027554D02*
X002722Y026614D01*
X002662Y026554D01*
X002222Y026994D01*
X002222Y028554D01*
X003012Y028804D01*
X003012Y029304D02*
X002322Y029494D01*
X001222Y029494D01*
X001222Y028114D01*
X001222Y027054D02*
X001222Y026994D01*
X001222Y025554D01*
X003722Y026554D02*
X003782Y026554D01*
X003012Y029804D02*
X003662Y030554D01*
X002722Y030554D01*
X004780Y030054D02*
X004780Y029804D01*
X007722Y028054D02*
X007782Y028054D01*
X009722Y029054D02*
X011512Y029054D01*
X011222Y022054D02*
X025722Y022054D01*
X026722Y021554D02*
X026722Y020554D01*
X025722Y020554D02*
X025722Y019554D01*
X029222Y018554D02*
X033722Y027554D01*
X034512Y027804D01*
X034512Y028304D02*
X030972Y028304D01*
X030722Y028554D01*
X030421Y029804D02*
X030222Y030003D01*
X029222Y030264D02*
X029222Y029554D01*
X028722Y030264D02*
X028722Y031054D01*
X028222Y031054D02*
X028222Y030264D01*
X033722Y026054D02*
X033722Y023994D01*
X034162Y023554D01*
X034512Y025804D02*
X034722Y025804D01*
X034512Y026304D02*
X033972Y026304D01*
X033722Y026054D01*
X034512Y026304D02*
X034512Y026804D01*
X036222Y028554D02*
X036273Y028554D01*
X036932Y028304D02*
X037472Y028304D01*
X037722Y028054D01*
X037722Y025106D01*
X037171Y024554D01*
X038222Y024606D02*
X038273Y024554D01*
X038222Y024606D02*
X038222Y028494D01*
X037912Y028804D01*
X036932Y028804D01*
X038222Y029614D02*
X038282Y029554D01*
X035222Y030054D02*
X035171Y030054D01*
X026222Y023554D02*
X024722Y023554D01*
X029222Y018554D02*
X012263Y018554D01*
X012247Y018555D01*
X012232Y018559D01*
X012218Y018565D01*
X012204Y018573D01*
X012192Y018583D01*
X013222Y016554D02*
X013162Y016494D01*
X013162Y015554D01*
X014282Y015554D02*
X014408Y015428D01*
X015289Y015428D01*
X010722Y015264D02*
X010722Y016054D01*
X009222Y016554D02*
X009222Y015264D01*
X007722Y015264D02*
X007722Y015106D01*
X007722Y015054D01*
X007722Y014054D02*
X007722Y014003D01*
X008722Y013554D02*
X008722Y012844D01*
X009222Y012554D02*
X008722Y012054D01*
X005222Y012054D01*
X009222Y008764D02*
X009222Y008054D01*
X002222Y020054D02*
X002171Y020054D01*
X011722Y021554D02*
X017722Y021554D01*
X032222Y016054D02*
X032222Y014764D01*
D20*
X034222Y015554D02*
X034722Y016054D01*
X034722Y025804D01*
X034512Y025804D02*
X035222Y025804D01*
X035722Y026304D01*
X035722Y029554D01*
X035722Y029304D01*
X034512Y029304D01*
X032023Y029304D01*
X030222Y031106D01*
X029222Y031554D01*
X026722Y031554D01*
X026222Y031054D01*
X026222Y030264D01*
X029222Y027844D02*
X030222Y030003D01*
X031421Y028804D01*
X034512Y028804D01*
X035222Y028804D01*
X035222Y028554D01*
X036273Y028554D02*
X036273Y029304D01*
X036932Y029304D01*
X036932Y029514D01*
X036934Y029531D01*
X036938Y029548D01*
X036945Y029564D01*
X036955Y029578D01*
X036968Y029591D01*
X036982Y029601D01*
X036998Y029608D01*
X037015Y029612D01*
X037032Y029614D01*
X038222Y029614D01*
X038282Y029554D02*
X038722Y029554D01*
X039222Y029054D01*
X039222Y023554D01*
X035282Y023554D01*
X036222Y025804D02*
X036932Y025804D01*
X036932Y026304D02*
X036222Y026304D01*
X036222Y026804D01*
X036932Y026804D01*
X036222Y026304D02*
X035722Y026304D01*
X036222Y026304D02*
X036222Y025804D01*
X039222Y023554D02*
X039222Y013554D01*
X029722Y013554D01*
X029222Y014054D01*
X029222Y014764D01*
X029222Y016054D01*
X028722Y016554D01*
X014222Y016554D01*
X013722Y016054D01*
X013722Y014554D01*
X013722Y013054D01*
X013722Y011554D01*
X013722Y010054D01*
X013722Y008554D01*
X013722Y007054D01*
X013722Y005554D01*
X013722Y004054D01*
X013722Y004180D01*
X015289Y004180D01*
X016155Y004554D02*
X021222Y004554D01*
X024289Y004554D01*
X025155Y004928D02*
X027222Y004928D01*
X027222Y005054D01*
X027222Y006554D01*
X027222Y006428D01*
X025155Y006428D01*
X024289Y006054D02*
X021222Y005554D01*
X016155Y006054D01*
X015289Y005680D02*
X013722Y005680D01*
X013722Y007180D02*
X015289Y007180D01*
X016155Y007554D02*
X021222Y006554D01*
X024289Y007554D01*
X025155Y007928D02*
X027222Y007928D01*
X027222Y008054D01*
X027222Y009554D01*
X027222Y009428D01*
X025155Y009428D01*
X024289Y009054D02*
X023222Y008054D01*
X021222Y007554D01*
X016155Y009054D01*
X015289Y008680D02*
X013722Y008680D01*
X013722Y010180D02*
X015289Y010180D01*
X016155Y010554D02*
X019289Y009054D01*
X020155Y008680D02*
X021222Y008554D01*
X022289Y008680D01*
X022289Y009428D02*
X021222Y009554D01*
X020155Y009428D01*
X020155Y010680D02*
X021222Y010554D01*
X022289Y010680D01*
X022289Y011428D02*
X021222Y011554D01*
X020155Y011428D01*
X019289Y011054D02*
X016155Y012054D01*
X015289Y011680D02*
X013722Y011680D01*
X013722Y013180D02*
X014222Y013180D01*
X011722Y013554D01*
X011722Y012844D01*
X011722Y013554D02*
X011222Y014054D01*
X007722Y014054D01*
X007722Y013054D01*
X007722Y015054D02*
X006722Y015054D01*
X002222Y015054D01*
X000722Y016554D01*
X000722Y024554D01*
X001222Y025054D01*
X003222Y025054D01*
X003722Y026554D01*
X003782Y026554D02*
X004662Y026554D01*
X003782Y026554D02*
X003782Y027554D01*
X003671Y027646D02*
X003012Y028304D01*
X004773Y027554D02*
X004780Y030054D01*
X004782Y030554D01*
X004722Y030614D01*
X004722Y031054D01*
X004222Y031554D01*
X001722Y031554D01*
X001222Y031054D01*
X001222Y030614D01*
X004780Y029804D02*
X005432Y029804D01*
X006722Y030614D01*
X007722Y030114D01*
X007782Y030054D01*
X009222Y030054D01*
X009222Y028554D02*
X011512Y028554D01*
X012722Y028554D01*
X013222Y029054D01*
X013932Y029054D01*
X013932Y029554D02*
X013222Y029554D01*
X013222Y030554D01*
X013932Y030554D01*
X013932Y031054D02*
X013222Y031054D01*
X013222Y030554D01*
X013222Y029554D02*
X013222Y029054D01*
X013932Y029554D02*
X014722Y029554D01*
X015222Y030003D01*
X015619Y029606D01*
X018722Y029606D01*
X018722Y029554D02*
X019722Y029554D01*
X019722Y030264D01*
X018722Y028554D02*
X022722Y028554D01*
X022722Y027844D01*
X018671Y028554D02*
X016722Y028554D01*
X016222Y028054D01*
X015722Y027554D01*
X009222Y027554D01*
X008722Y028054D02*
X009222Y028554D01*
X008722Y028054D02*
X008722Y025054D01*
X007722Y024054D01*
X003932Y024054D01*
X003222Y024054D01*
X003222Y025054D01*
X003222Y024054D02*
X002222Y023054D01*
X001512Y023054D01*
X001512Y022554D02*
X002222Y022554D01*
X002222Y022054D01*
X001512Y022054D01*
X001512Y021554D02*
X002222Y021554D01*
X002222Y020106D01*
X002171Y020054D01*
X001512Y019264D02*
X001722Y019054D01*
X002773Y019054D01*
X003222Y019554D01*
X003273Y019606D01*
X003273Y020054D01*
X003273Y021054D01*
X003932Y021054D01*
X003273Y021054D02*
X003273Y022503D01*
X003222Y022554D01*
X003932Y022554D01*
X004722Y022554D01*
X002222Y022554D02*
X002222Y023054D01*
X002222Y022054D02*
X002222Y021554D01*
X001512Y021054D02*
X001512Y019264D01*
X003273Y020054D02*
X006222Y020054D01*
X007722Y018554D01*
X007722Y015264D02*
X008722Y015264D01*
X013722Y014680D02*
X015289Y014680D01*
X016155Y015054D02*
X019289Y015054D01*
X020155Y014680D02*
X021222Y014554D01*
X022289Y014680D01*
X023155Y015054D02*
X024289Y015054D01*
X025155Y015428D02*
X025155Y015487D01*
X025722Y016054D01*
X027222Y016054D01*
X027222Y014054D01*
X027222Y013928D01*
X025155Y013928D01*
X024289Y013554D02*
X023155Y013054D01*
X022289Y012680D02*
X021222Y012554D01*
X020155Y012680D01*
X019289Y013054D02*
X016155Y013554D01*
X015289Y013180D02*
X014222Y013180D01*
X008722Y008764D02*
X007722Y008764D01*
X007722Y008606D02*
X006722Y008606D01*
X007722Y007554D02*
X011222Y007554D01*
X011722Y007054D01*
X011722Y006344D01*
X011722Y004054D01*
X012722Y003054D01*
X013722Y003054D01*
X013722Y004054D01*
X013722Y003054D02*
X018671Y003054D01*
X018671Y001554D01*
X019773Y001554D02*
X019773Y003054D01*
X020722Y003054D01*
X020722Y002554D01*
X020722Y003054D02*
X027222Y003054D01*
X027222Y005054D01*
X027222Y006554D02*
X027222Y008054D01*
X027222Y009554D02*
X027222Y011054D01*
X027222Y010928D01*
X025155Y010928D01*
X024289Y010554D02*
X023155Y009054D01*
X023155Y011054D02*
X024289Y012054D01*
X025155Y012428D02*
X027222Y012428D01*
X027222Y012554D01*
X027222Y014054D01*
X027222Y012554D02*
X027222Y011054D01*
X029222Y008264D02*
X029222Y007554D01*
X029722Y007054D01*
X033222Y007054D01*
X038722Y007054D01*
X039222Y007554D01*
X039222Y013554D01*
X034222Y012554D02*
X033222Y012554D01*
X033222Y012344D02*
X032222Y012344D01*
X033222Y006003D02*
X033222Y005054D01*
X033222Y005844D02*
X032222Y005844D01*
X033222Y006003D02*
X034222Y006003D01*
X028722Y003054D02*
X027222Y003054D01*
X022289Y013428D02*
X021222Y013554D01*
X020155Y013428D01*
X020155Y015428D02*
X021222Y015554D01*
X022289Y015428D01*
X036273Y029304D02*
X036273Y030054D01*
X035722Y029554D02*
X035222Y030054D01*
X016222Y030054D02*
X015222Y031054D01*
X015222Y031106D01*
X014722Y031554D01*
X013932Y031554D01*
D21*
X012722Y030554D03*
X010722Y031054D03*
X010722Y031554D03*
X009222Y031054D03*
X009222Y030054D03*
X009722Y029054D03*
X008722Y029054D03*
X009222Y027554D03*
X010222Y026554D03*
X010222Y026054D03*
X010222Y025554D03*
X010222Y025054D03*
X010222Y024554D03*
X010222Y024054D03*
X010222Y023554D03*
X010222Y023054D03*
X010222Y022554D03*
X011222Y022054D03*
X011722Y021554D03*
X011722Y018054D03*
X010722Y017554D03*
X011222Y017054D03*
X011722Y017054D03*
X010722Y016054D03*
X009222Y016554D03*
X007722Y018554D03*
X004722Y021554D03*
X004722Y022554D03*
X005722Y025554D03*
X002722Y027554D03*
X001222Y025554D03*
X002722Y030554D03*
X010722Y027054D03*
X016222Y028054D03*
X017222Y027054D03*
X017722Y029054D03*
X016222Y030054D03*
X016722Y030554D03*
X017222Y031054D03*
X021222Y031054D03*
X022222Y031054D03*
X022722Y029554D03*
X025722Y029554D03*
X026222Y028554D03*
X027722Y028554D03*
X027722Y029554D03*
X029222Y029054D03*
X030722Y028554D03*
X032722Y026554D03*
X032222Y026054D03*
X031722Y025554D03*
X031222Y025054D03*
X030722Y024554D03*
X030222Y024054D03*
X029722Y023554D03*
X028722Y023054D03*
X028222Y022554D03*
X027722Y023054D03*
X026222Y023554D03*
X024722Y025054D03*
X023722Y024054D03*
X022222Y024054D03*
X021722Y024554D03*
X021222Y025054D03*
X020722Y025554D03*
X020222Y026054D03*
X020222Y027054D03*
X020722Y027054D03*
X021222Y027054D03*
X021722Y027054D03*
X022222Y027054D03*
X022722Y026054D03*
X026222Y027054D03*
X026722Y027054D03*
X027222Y027054D03*
X027722Y027054D03*
X028222Y031054D03*
X028722Y031054D03*
X027222Y031054D03*
X035222Y028554D03*
X036222Y028554D03*
X029722Y022554D03*
X029222Y022054D03*
X026722Y021554D03*
X025722Y022054D03*
X024722Y021554D03*
X023722Y021554D03*
X022722Y021554D03*
X020222Y021554D03*
X017722Y021554D03*
X021722Y019054D03*
X021722Y017554D03*
X025722Y019554D03*
X027722Y016054D03*
X030222Y016554D03*
X031222Y016554D03*
X032222Y016054D03*
X030722Y015554D03*
X028722Y013554D03*
X028722Y012054D03*
X028722Y010554D03*
X030222Y011554D03*
X031722Y013054D03*
X034222Y012554D03*
X035722Y011054D03*
X036722Y010054D03*
X036222Y009054D03*
X035222Y009554D03*
X037222Y011554D03*
X037722Y010554D03*
X034222Y006054D03*
X033222Y005054D03*
X031722Y004554D03*
X030222Y005054D03*
X028722Y004554D03*
X028722Y003054D03*
X028722Y006054D03*
X028722Y007554D03*
X028722Y009054D03*
X030722Y009054D03*
X032222Y007554D03*
X034722Y003554D03*
X038222Y004054D03*
X038722Y003054D03*
X034222Y015554D03*
X030222Y018054D03*
X013222Y016554D03*
X012222Y014054D03*
X012222Y012554D03*
X012222Y011054D03*
X012222Y009554D03*
X010722Y009554D03*
X012222Y008054D03*
X012222Y006554D03*
X012222Y005054D03*
X010222Y005554D03*
X008722Y005054D03*
X009222Y008054D03*
X006722Y008554D03*
X004222Y009554D03*
X003722Y010054D03*
X003222Y010554D03*
X002222Y011054D03*
X002722Y011554D03*
X005222Y012054D03*
X007722Y013054D03*
X008722Y013554D03*
X010222Y012054D03*
X006722Y015054D03*
X004722Y004054D03*
X001722Y003554D03*
X001222Y003054D03*
X020722Y002554D03*
M02*
