G75*
G70*
%OFA0B0*%
%FSLAX24Y24*%
%IPPOS*%
%LPD*%
%AMOC8*
5,1,8,0,0,1.08239X$1,22.5*
%
%ADD10C,0.0720*%
D10*
X016722Y001234D02*
X016722Y001874D01*
X017722Y001874D02*
X017722Y001234D01*
X018722Y001234D02*
X018722Y001874D01*
X019722Y001874D02*
X019722Y001234D01*
X020722Y001234D02*
X020722Y001874D01*
X021722Y001874D02*
X021722Y001234D01*
X023722Y001234D02*
X023722Y001874D01*
X024722Y001874D02*
X024722Y001234D01*
X025722Y001234D02*
X025722Y001874D01*
X026722Y001874D02*
X026722Y001234D01*
X027722Y001234D02*
X027722Y001874D01*
X028722Y001874D02*
X028722Y001234D01*
X021542Y004554D02*
X020902Y004554D01*
X020902Y005554D02*
X021542Y005554D01*
X021542Y006554D02*
X020902Y006554D01*
X020902Y007554D02*
X021542Y007554D01*
X021542Y008554D02*
X020902Y008554D01*
X020902Y009554D02*
X021542Y009554D01*
X021542Y010554D02*
X020902Y010554D01*
X020902Y011554D02*
X021542Y011554D01*
X021542Y012554D02*
X020902Y012554D01*
X020902Y013554D02*
X021542Y013554D01*
X021542Y014554D02*
X020902Y014554D01*
X020902Y015554D02*
X021542Y015554D01*
X021722Y020234D02*
X021722Y020874D01*
X022722Y020874D02*
X022722Y020234D01*
X023722Y020234D02*
X023722Y020874D01*
X024722Y020874D02*
X024722Y020234D01*
X025722Y020234D02*
X025722Y020874D01*
X026722Y020874D02*
X026722Y020234D01*
X027722Y020234D02*
X027722Y020874D01*
X028722Y020874D02*
X028722Y020234D01*
X020122Y020234D02*
X020122Y020874D01*
X019122Y020874D02*
X019122Y020234D01*
X018122Y020234D02*
X018122Y020874D01*
X017122Y020874D02*
X017122Y020234D01*
X016122Y020234D02*
X016122Y020874D01*
X015122Y020874D02*
X015122Y020234D01*
X014122Y020234D02*
X014122Y020874D01*
X013122Y020874D02*
X013122Y020234D01*
X007722Y026234D02*
X007722Y026874D01*
X006722Y026874D02*
X006722Y026234D01*
M02*
